<?xml version="1.0" encoding="utf-8"?>
<!-- Generator: Adobe Illustrator 19.2.1, SVG Export Plug-In . SVG Version: 6.00 Build 0)  -->
<svg version="1.1" id="Layer_1" xmlns="http://www.w3.org/2000/svg" xmlns:xlink="http://www.w3.org/1999/xlink" x="0px" y="0px"
	 viewBox="0 0 259.1 250.4" style="enable-background:new 0 0 259.1 250.4;" xml:space="preserve">
<style type="text/css">
	.st0{fill:#87CFC6;}
	.st1{fill:#2D3E50;}
	.st2{fill:#FFFFFF;}
</style>
<g>
	<circle class="st0" cx="129" cy="127.3" r="114.6"/>
	<g>
		<path class="st1" d="M57.5,113.9c-0.2-0.1-0.4,0-0.5,0.1c-0.2,0.2-0.3,0.4-0.4,0.6c-0.8,1.1-1.6,2.3-2.3,3.5
			c-0.8,1.3-1.5,2.5-2.2,3.8c-0.4,0.8-0.8,1.6-1.1,2.3c-0.3,0.7-0.7,1.5-1.1,2.3c-0.5,0.8-0.9,1.6-1.3,2.3c-0.4,0.7-0.7,1.5-1.1,2.3
			c-0.4,0.6-0.8,1.3-1.2,2c-0.4,0.8-0.8,1.5-1.2,2.3c-0.3,0.8-0.7,1.5-1.1,2.2c-0.5,0.7-0.9,1.3-1.3,2c-0.4,0.7-0.8,1.4-1.1,2.2
			c-0.3,0.8-0.7,1.6-1.1,2.5c-0.3,0.8-0.7,1.8-1.1,3.1c-0.4,1.3-0.9,2.1-1.4,2.5c-0.7,0.5-1.6,0.9-2.6,1.2c-1,0.3-1.9,0.2-2.7-0.3
			c-0.4-0.2-0.8-0.6-1.1-1.2c-0.4-0.6-0.5-1.2-0.5-1.7c0-0.5,0-1.1,0.2-1.7c0.1-0.7,0.2-1.3,0.3-1.9c0.2-0.6,0.3-1.2,0.3-1.9
			c0-0.7,0.1-1.2,0.3-1.7c0.2-0.5,0.4-1.1,0.5-1.7c0.2-0.6,0.3-1.2,0.5-1.7c0.2-0.5,0.3-1.1,0.4-1.7c0-0.6,0.2-1.2,0.4-1.7l0.9-3.2
			c0.2-0.6,0.4-1.2,0.5-1.7c0.1-0.6,0.2-1.1,0.3-1.7c0.1-0.6,0.2-1.2,0.4-1.7c0.2-0.6,0.3-1.1,0.5-1.6c0.3-1.1,0.6-2.2,0.9-3.3
			c0.3-1.1,0.6-2.2,0.9-3.3c0.2-0.5,0.4-1,0.5-1.6c0.2-0.6,0.3-1.1,0.4-1.6c0.2-1.1,0.4-2.3,0.6-3.5c0.2-1.2,0.5-2.4,0.8-3.6
			l0.9-3.2c0.2-0.6,0.4-1.2,0.5-1.7c0.1-0.6,0.2-1.1,0.5-1.6c-0.3,0.5-0.7,1.1-1.1,1.7c-0.2,0.3-0.5,0.6-0.8,0.9
			c-0.4,0.3-0.6,0.7-0.8,1.1c-0.6,0.7-1.2,1.4-1.7,2.2c-0.5,0.8-1,1.5-1.5,2.3c-0.5,0.7-1.1,1.4-1.7,2c-0.6,0.7-1.2,1.3-1.7,2
			c-0.5,0.7-1,1.4-1.6,2c-0.6,0.7-1.1,1.3-1.7,2c-0.6,0.8-1.2,1.5-1.8,2.1c-0.6,0.6-1.2,1.3-1.7,2c-0.5,0.7-1,1.4-1.6,2.2
			c-0.6,0.8-1.2,1.4-1.9,2c-0.6,0.6-1.2,1.2-1.9,1.8c-0.7,0.6-1.2,1.3-1.7,2c-0.6,0.8-1.2,1.6-1.7,2.4c-0.5,0.8-1.1,1.6-1.7,2.4
			c-1.2,1.4-2.3,2.9-3.4,4.6c-1.1,1.7-1.9,3.7-2.6,6.3c-0.2,0.6-0.4,1.2-0.6,1.7c-0.2,0.6-0.4,1.1-0.5,1.7c-0.3,1.1-0.5,2.2-0.5,3.2
			c0,0.4,0.1,1.1,0.4,2.2c0.2,1.1,0.8,1.8,1.6,2.2c0.5,0.3,1,0.5,1.5,0.5c0.5,0.1,1,0.2,1.5,0.4c0.6,0.3,1.1,0.8,1.6,1.4
			c0.5,0.6,0.4,1.5-0.1,2.6c-0.2,0.5-0.6,0.9-1.1,1.2c-0.5,0.3-0.9,0.5-1.2,0.6c-0.8,0.2-1.6,0.1-2.3-0.2c-0.8-0.4-1.4-0.8-1.9-1.4
			c-0.8-1-1.5-2.2-2-3.6c-0.5-2-0.6-3.7-0.3-5c0.3-1.3,0.7-3,1.2-5c0.2-0.6,0.4-1.2,0.6-1.8c0.2-0.6,0.4-1.2,0.6-1.8
			c0.3-0.6,0.5-1.2,0.7-1.8c0.2-0.6,0.3-1.2,0.5-1.8c0.4-1,0.9-2,1.5-3c0.6-0.9,1.2-1.7,1.8-2.5c0.6-0.8,1.3-1.5,2-2.3
			c0.4-0.4,0.7-0.8,1-1.2c0.3-0.4,0.5-0.9,0.8-1.4c0.2-0.5,0.5-0.9,0.8-1.3c0.4-0.4,0.7-0.7,1-1.1c0.3-0.4,0.6-0.8,0.9-1.1
			c0.3-0.4,0.7-0.7,1.1-1c0.3-0.3,0.6-0.6,1-0.9c0.4-0.3,0.6-0.7,0.8-1.1c0.4-0.4,0.7-0.8,1-1.2c0.3-0.4,0.5-0.8,0.8-1.2
			c0.8-1.1,1.7-2.2,2.7-3.2c1-1,1.9-2.1,2.7-3.2c0.6-0.8,1.2-1.5,1.8-2.2c0.6-0.7,1.2-1.4,1.8-2.2c0.6-0.8,1.2-1.6,1.8-2.3
			c0.6-0.7,1.2-1.5,1.7-2.3c0.2-0.5,0.5-1,0.8-1.4c0.3-0.4,0.6-0.8,0.9-1.2c0.3-0.3,0.6-0.6,0.9-1c0.3-0.4,0.6-0.7,0.9-1.1
			c0.5-0.8,1.1-1.6,1.7-2.3c0.7-0.8,1.2-1.5,1.7-2.3l0.2-0.3c0.2-0.3,0.3-0.6,0.4-0.8c0-0.3,0.2-0.5,0.4-0.7
			c0.2-0.5,0.6-1.1,1.2-1.7c0.6-0.7,1.2-1.1,1.7-1.3c1.4-0.5,2.7-0.3,3.8,0.7c1.1,1,1.7,2,1.8,3.1c0.1,1.3-0.1,2.5-0.5,3.6
			c-0.4,1.1-0.7,2.2-0.9,3.3c-0.2,0.5-0.3,1-0.3,1.6c0,0.6-0.1,1.1-0.2,1.6c-0.1,0.5-0.2,1-0.3,1.5c-0.1,0.5-0.3,1-0.5,1.5
			c-0.3,1.1-0.5,2.2-0.5,3.2c-0.1,1.1-0.2,2.1-0.5,3.1c-0.2,0.5-0.4,1-0.5,1.4c-0.2,0.4-0.3,0.9-0.5,1.4c-0.2,0.5-0.4,1-0.5,1.4
			c-0.2,0.4-0.3,0.8-0.5,1.2c-0.2,0.5-0.3,1.1-0.4,1.7c-0.1,0.6-0.2,1.2-0.4,1.7c-0.3,1-0.6,2-0.8,3c-0.3,1-0.5,2.1-0.8,3.2
			c-0.2,0.5-0.4,1-0.5,1.5c-0.2,0.5-0.2,1.1-0.2,1.7c0.4-0.1,0.7-0.3,0.9-0.7c0.2-0.4,0.4-0.6,0.6-0.8c1.2-2.3,2.3-4.6,3.4-6.9
			c1.1-2.3,2.3-4.6,3.7-6.8c0.8-1.2,1.6-2.4,2.3-3.6c0.7-1.2,1.5-2.5,2.3-3.9c0.7-1.1,1.6-2.2,2.7-3.3c0.5-0.5,1.1-1.1,1.9-1.7
			c0.8-0.6,1.6-0.8,2.5-0.6c0.5,0.2,1,0.6,1.6,1.1c0.6,0.5,0.9,1,1,1.5c0.2,0.5,0.2,1,0.1,1.6c-0.2,0.6-0.3,1.1-0.4,1.6
			c-0.2,0.5-0.3,1-0.4,1.6c-0.1,0.6-0.1,1.1-0.2,1.6c-0.6,2.1-1.2,4.1-1.8,5.9c-0.4,1-0.8,2-1.1,2.9c-0.4,0.9-0.6,1.8-0.8,2.7
			l-0.9,3.2c-0.2,0.5-0.4,1-0.5,1.5c-0.1,0.5-0.2,1-0.2,1.5c0.4,0,0.7-0.1,0.8-0.4c0.1-0.2,0.2-0.5,0.5-0.7c1.1-1.6,2.1-3.2,3-4.9
			c0.9-1.7,1.9-3.3,3-5.1c0.6-1,1.2-2,1.8-2.9c0.6-0.9,1.2-1.8,1.8-2.7c0.3-0.5,0.6-1,0.8-1.4c0.3-0.5,0.6-0.9,1-1.4l1.8-2.7
			c0.6-0.9,1.2-1.8,1.7-2.8c0.6-1,1.1-1.9,1.7-2.9c0.6-0.9,1.2-1.8,1.9-2.6c0.7-0.9,1.3-1.7,2-2.6c0.8-1.2,1.8-2.4,3-3.6
			c1.2-1.2,2.5-2.3,3.8-3.3c0.5-0.3,1-0.6,1.4-1c0.5-0.4,0.9-0.6,1.3-0.8c0.5-0.2,1.3-0.3,2.3-0.4c1.1,0,1.8,0,2.3,0.2
			c0.7,0.2,1.3,0.8,1.7,1.7c0.4,1,0.6,1.9,0.6,2.9c0,0.5-0.1,1-0.2,1.5c-0.1,0.5-0.2,1.1-0.3,1.7c-0.1,0.5-0.2,1-0.2,1.4
			c-0.1,0.5-0.2,0.9-0.4,1.4c-0.2,0.9-0.4,1.9-0.6,2.9c-0.2,1-0.5,1.9-0.8,2.7c-0.4,0.8-0.7,1.7-1,2.6c-0.3,0.9-0.5,1.8-0.8,2.7
			c-0.3,0.9-0.6,1.8-0.8,2.6c-0.3,0.9-0.5,1.8-0.7,2.8c-0.5,2-1.1,3.8-1.8,5.4c-0.7,1.6-1.3,3.2-1.8,5.1c-0.6,2.7-1.4,5.5-2.3,8.3
			c-0.2,0.4-0.4,0.8-0.5,1.2c-0.1,0.4-0.3,0.9-0.5,1.4c-0.1,0.5-0.2,1-0.2,1.4c0,0.5-0.1,0.9-0.3,1.4c-0.6,1.8-1.1,3.5-1.5,5.1
			c0,0.3-0.1,0.7-0.2,1.1c-0.2,0.5-0.3,0.9-0.3,1.4c-0.1,0.5,0,0.9,0.1,1.3c0.1,0.4,0.3,0.7,0.8,0.8c0.5,0.2,1.1,0.1,1.8-0.2
			c0.7-0.4,1.3-0.6,1.8-0.8c1.5-0.7,2.9-1.7,4.1-2.9c1.2-1.2,2.3-2.5,3.2-3.9c0.7-1,1.3-2,1.9-2.9c0.6-0.9,1.1-1.9,1.7-3
			c0.2-0.5,0.5-1,0.8-1.5c0.3-0.5,0.6-1.1,0.8-1.7c0.2-0.5,0.5-1.3,1-2.4c0.5-1.1,0.8-1.9,1.1-2.3c0.2-0.2,0.3-0.4,0.4-0.6
			c0-0.2,0.2-0.5,0.4-0.8c0.2-0.4,0.5-0.9,0.8-1.5c0.4-0.6,0.8-0.8,1.3-0.6c0.3,0.2,0.4,0.5,0.3,0.9c-0.1,0.4-0.3,0.9-0.5,1.4
			c-0.2,0.4-0.4,0.8-0.5,1.1c-0.2,0.4-0.3,0.7-0.5,1c-0.7,1.4-1.2,2.5-1.5,3.2c-0.3,0.8-0.9,1.8-1.7,3.2c-0.3,0.4-0.6,0.8-0.8,1.1
			c-0.2,0.4-0.4,0.8-0.6,1.3c-0.3,0.4-0.6,0.8-0.8,1.2c-0.2,0.4-0.4,0.8-0.6,1.2c-0.5,0.8-1,1.5-1.5,2.2c-0.5,0.7-1,1.4-1.5,2.2
			c-0.5,0.7-1.1,1.4-1.7,2c-0.7,0.6-1.3,1.2-2,1.8c-0.7,0.5-1.5,1-2.3,1.5c-0.8,0.5-1.6,0.9-2.4,1.2c-1.2,0.5-2.2,0.9-2.9,1.1
			c-0.7,0.3-1.7,0.3-2.9,0.2c-2.5-0.2-4.2-1.1-5-2.7c-0.5-1.1-0.6-2.2-0.4-3.4c0.3-1.2,0.5-2.3,0.8-3.4c0.2-0.7,0.3-1.4,0.4-2
			c0-0.7,0.2-1.3,0.4-1.9c0.3-1.2,0.7-2.4,1.1-3.6c0.4-1.2,0.8-2.4,1.1-3.6c0.3-1.2,0.6-2.4,0.8-3.7c0.3-1.3,0.5-2.5,0.8-3.8
			c0.1-0.3,0.2-0.6,0.2-1c0-0.4,0-0.7,0.2-1c0.2-0.8,0.5-1.7,0.8-2.6c0.4-0.9,0.6-1.8,0.8-2.6c0.2-0.5,0.3-1,0.3-1.5
			c0-0.5,0.1-1,0.3-1.5c0.2-0.5,0.4-1,0.5-1.4c0.2-0.4,0.3-0.9,0.5-1.4c0.2-0.9,0.4-1.8,0.6-2.8c0.2-1,0.5-1.9,0.8-2.9
			c0.3-0.9,0.6-1.8,0.8-2.8c0.3-1,0.5-1.9,0.7-2.9c0.2-0.5,0.4-1.2,0.5-2c0.1-0.9,0.3-1.7,0.5-2.5c0.1-0.7,0-1.1-0.2-1.3
			c-0.2-0.2-0.5-0.1-0.9,0.1c-0.4,0.2-0.8,0.5-1.2,0.9c-0.4,0.4-0.7,0.8-0.9,1.1c-0.8,0.9-1.6,1.8-2.3,2.7c-0.7,0.9-1.4,1.9-2.1,3
			c-0.8,1-1.5,2-2.1,3c-0.6,1-1.3,2.1-2,3.2c-0.7,1.1-1.4,2.1-2.1,2.9c-0.7,1.1-1.3,2.2-1.9,3.2c-0.6,1-1.2,2.1-2,3.2
			c-1.4,1.9-2.7,4-3.9,6.2c-1.2,2.2-2.5,4.3-3.8,6.3c-0.7,1.1-1.3,2.2-1.8,3.4c-0.5,1.2-1,2.3-1.5,3.4c-0.6,1.1-1.2,2.2-1.7,3.4
			c-0.5,1.2-1.1,2.3-1.8,3.4c-0.5,0.8-1.3,1.6-2.3,2.3c-1.1,0.7-2.2,0.8-3.5,0.3c-0.9-0.4-1.5-1-1.7-1.7c-0.1-0.5-0.1-1.2,0.1-2.1
			c0.2-0.9,0.3-1.6,0.4-2.1c0.3-1.4,0.6-2.8,0.8-4.1c0.2-1.3,0.6-2.6,1-3.8c0.5-1.7,1.1-3.4,1.9-5.2c0.8-1.8,1.3-3.5,1.7-5.4
			c0.3-1.3,0.7-2.5,1.1-3.7C57.2,116.6,57.4,115.3,57.5,113.9z"/>
		<path class="st1" d="M128,125.5c0.3,0.2,0.4,0.5,0.4,0.8c-0.1,0.3-0.2,0.6-0.5,1c-0.3,0.4-0.6,0.7-0.9,0.9
			c-0.3,0.3-0.5,0.4-0.6,0.5c-1.2,0.9-2.3,1.9-3.2,2.9c-0.9,1-1.9,1.9-3,2.7c-0.5,0.5-1,0.9-1.6,1.3c-0.6,0.4-1.1,0.8-1.6,1.3
			c-0.5,0.5-1,0.9-1.5,1.3c-0.5,0.4-1,0.8-1.5,1.3c-1.1,1-2.2,1.9-3.2,2.6c-1.1,0.8-2.1,1.6-3.2,2.5c-0.5,0.5-1.1,1-1.7,1.4
			c-0.6,0.5-1,0.9-1.2,1.4c-0.3,0.5-0.5,1.1-0.5,1.7c-0.1,0.6-0.2,1.2-0.4,1.7c-0.2,0.6-0.3,1.2-0.3,1.8c0,0.6-0.1,1.2-0.2,1.7
			l-0.9,3.2c-0.2,0.6-0.3,1.2-0.4,1.8c-0.1,0.6-0.2,1.2-0.4,1.7c-0.5,1.7-1.1,3.7-1.9,6.1c-0.8,2.4-1.5,4.3-2.3,6
			c-0.5,0.9-0.9,1.8-1.3,2.7c-0.4,0.9-0.8,1.8-1.3,2.7c-0.5,0.9-1.1,1.7-1.7,2.4c-0.2,0.4-0.5,0.8-0.8,1.1c-0.4,0.3-0.6,0.7-0.8,1.1
			c-0.5,0.8-1,1.6-1.6,2.3c-0.6,0.7-1.2,1.4-2,2.1c-0.7,0.6-1.3,1.2-1.9,1.9c-0.6,0.7-1.2,1.2-2,1.7c-0.5,0.4-1.1,0.8-1.7,1.1
			c-0.6,0.4-1.2,0.7-1.8,1c-0.6,0.3-1.2,0.7-1.7,1.1c-0.6,0.4-1.1,0.8-1.7,1.1c-1.2,0.7-2.4,1.3-3.5,1.7c-1.2,0.5-2.6,0.8-4.3,1
			c-0.1,0.1-0.2,0.1-0.3,0.1c-1.7,0.1-3.2,0-4.5-0.2c-1.3-0.3-2.4-0.8-3.2-1.6c-0.5-0.6-0.9-1.4-1.3-2.4c-0.4-1-0.4-2.2-0.1-3.5
			c0.3-1.1,0.8-2.2,1.5-3.2c0.7-1,1.4-1.9,2.1-2.7c2.9-3.6,5.8-7,8.7-10.1c1.5-1.5,3.1-3.1,4.8-4.7c1.7-1.6,3.2-3.1,4.8-4.5
			c0.4-0.5,0.8-0.9,1.1-1.2c0.4-0.3,0.8-0.7,1.3-1.1c1.1-1.2,2.3-2.3,3.5-3.4c1.2-1.1,2.5-2.2,3.8-3.4c0.6-0.7,1.4-1.4,2.4-2.1
			c0.3-0.3,0.7-0.7,1.3-1.1c0.6-0.5,0.9-0.8,1.1-1.1c0.2-0.5,0.3-1.2,0.4-2.1c0-0.9,0.1-1.6,0.2-2.1c0.8-3.7,1.5-7.2,2.1-10.4
			c0.6-3.2,1.4-6.7,2.4-10.6c0.1-0.3,0.2-0.9,0.4-1.7c0.2-0.8,0.3-1.7,0.5-2.6c0.2-0.9,0.4-1.8,0.5-2.6c0.2-0.9,0.3-1.4,0.4-1.7
			c0.5-2.4,1.1-4.6,1.8-6.6c0.7-2,1.4-4.1,2-6.3c0.7-2.2,1.6-4,2.9-5.5c0.5-0.5,1-1,1.4-1.6c0.4-0.6,0.9-1.1,1.5-1.6
			c0.6-0.4,1-0.7,1.2-0.8c1.9,0.2,2.9,1.1,2.9,2.6c0,1.6-0.2,3-0.7,4.3c-0.6,1.5-1.1,3.2-1.4,5.1c-0.2,0.9-0.4,1.8-0.7,2.6
			c-0.3,0.9-0.5,1.7-0.8,2.5c-0.2,0.9-0.4,1.8-0.6,2.7c-0.2,0.9-0.4,1.8-0.6,2.7c-0.1,0.5-0.3,1.2-0.6,2.2c-0.3,1-0.6,2-1,3
			c-0.4,1.1-0.7,2.1-1,3.1c-0.3,1-0.5,1.7-0.6,2.1c-0.2,0.9-0.4,1.8-0.5,2.8c-0.2,1-0.4,1.8-0.7,2.6c-0.2,0.5-0.5,1.3-0.8,2.3
			c-0.3,1.1-0.6,2.1-0.9,3.2c-0.3,1.1-0.5,2-0.6,2.8c-0.1,0.8-0.1,1.3,0.2,1.4c0.3,0.1,0.8-0.2,1.6-0.8c0.8-0.7,1.2-1.1,1.4-1.3
			c0.4-0.3,0.9-0.7,1.4-1.1c0.6-0.4,1-0.8,1.4-1.2c0.9-0.8,1.8-1.6,2.8-2.3c1-0.7,1.8-1.5,2.6-2.3c1-0.8,2-1.6,2.9-2.3
			c0.9-0.8,1.8-1.6,2.6-2.5c0.6-0.6,1.3-1.2,2-1.7c0.7-0.6,1.4-1.2,2.1-1.9C127.1,125.4,127.6,125.2,128,125.5z M94.6,158.2
			c0.1-0.3,0.3-0.8,0.5-1.6c0.2-0.8,0.2-1.2-0.2-1.4c-0.2-0.1-0.6,0.1-1.1,0.5c-0.6,0.5-1,0.8-1.3,1.1c-0.6,0.6-1.3,1.3-2,2
			c-0.8,0.8-1.5,1.4-2.2,2c-1.1,0.9-2.2,1.9-3.2,2.9c-1.1,1-2.1,2.1-3.1,3.2c-0.4,0.4-0.8,0.8-1.1,1.1c-0.3,0.4-0.7,0.7-1.1,1.1
			c-1,1.1-2,2.1-3.1,3s-2.1,1.9-3.2,3c-0.7,0.7-1.4,1.4-2,2.1c-0.7,0.7-1.3,1.5-2,2.3c-1,1.1-2,2.2-2.9,3.4c-1,1.2-1.9,2.3-2.8,3.5
			c-0.3,0.5-0.6,0.9-1,1.3c-0.4,0.4-0.6,0.8-0.8,1.3c-0.8,1.5-0.9,2.9-0.2,4.2c0.7,1.3,1.5,2.2,2.4,2.6c0.5,0.2,1.2,0.3,2.2,0.4
			c1,0,1.7,0.1,2.2,0.1c1.7-0.2,3.4-0.7,5.1-1.5c1.7-0.8,3.2-1.6,4.5-2.4c2.4-1.5,4.4-3.1,5.9-4.9c1.5-1.8,2.8-3.7,3.8-5.7
			c1.1-2.1,1.9-4.2,2.6-6.5c0.7-2.3,1.4-4.6,2.1-7c0.5-1.6,0.9-3.3,1.1-5.1C93.9,161.5,94.2,159.8,94.6,158.2z M116.8,84.3
			c-3.2,0.2-4.7-1.3-4.4-4.4c0.1-0.5,0.2-0.9,0.3-1.2c0.1-0.3,0.2-0.7,0.5-1.1c0.4-0.8,0.8-1.4,1.1-1.7c0.3-0.4,0.8-0.8,1.4-1.4
			c0.4-0.3,0.8-0.7,1.1-1.1c0.3-0.4,0.7-0.8,1.1-1.1c0.8-0.6,1.6-1,2.3-1.1c0.7-0.2,1.6-0.1,2.7,0.1c1.2,0.2,2,0.6,2.5,1.1
			c0.5,0.6,0.8,1.5,1,2.8c0.1,0.5,0.2,1.1,0.2,1.8c0,0.7-0.1,1.3-0.3,1.8c-0.3,0.8-0.8,1.5-1.5,2c-0.7,0.5-1.4,0.9-2,1.2
			c-0.4,0.3-1.1,0.7-2.1,1.1c-0.6,0.3-1.2,0.6-1.7,0.8C118.3,84.2,117.6,84.3,116.8,84.3z"/>
		<path class="st1" d="M163.1,124.3c0.6,0.4,0.7,0.8,0.2,1.3c-0.5,0.5-0.9,0.8-1.2,1c-0.8,0.4-1.6,0.8-2.3,1.1
			c-0.7,0.3-1.6,0.6-2.6,0.8c-0.5,0.1-1,0.2-1.6,0.3c-0.6,0.1-1.1,0.2-1.6,0.2c-0.7,0-1.5-0.1-2.3-0.2c-0.8-0.2-1.5-0.3-2-0.5
			c-0.3-0.1-0.6-0.2-1-0.3c-0.4-0.1-0.7-0.2-1-0.3c-0.3-0.2-0.6-0.4-0.8-0.6c-0.3-0.2-0.5-0.2-0.8-0.1c-0.4,0-0.7,0.3-1,0.8
			c-0.3,0.6-0.4,1.1-0.5,1.6c-0.1,0.5-0.2,1-0.3,1.4c-0.1,0.5-0.3,0.9-0.5,1.4c-0.2,0.5-0.4,1-0.6,1.4c-0.2,0.4-0.4,0.8-0.6,1.2
			c-0.2,0.5-0.4,0.9-0.7,1.3c-0.3,0.4-0.5,0.8-0.7,1.3c-0.5,1.4-1.1,2.7-1.7,3.9c-0.6,1.2-1.3,2.4-2.1,3.6c-0.1,0.2-0.2,0.4-0.3,0.6
			c-0.1,0.2-0.3,0.4-0.5,0.6c-0.2,0.2-0.3,0.4-0.3,0.6c0,0.2-0.1,0.4-0.3,0.6c-0.2,0.3-0.7,0.8-1.5,1.4c-0.2,0.2-0.4,0.4-0.7,0.7
			c-0.3,0.3-0.5,0.5-0.7,0.7c-0.2,0.2-0.5,0.4-0.8,0.5c-0.3,0.1-0.6,0.3-0.8,0.5c-0.3,0.2-0.5,0.4-0.7,0.5c-0.1,0.1-0.4,0.2-0.8,0.3
			c-1.7,0.2-3.3,0.1-4.7-0.3c-1.4-0.4-2.6-1-3.5-1.8c-0.3-0.3-0.7-0.7-1.1-1.1c-0.4-0.5-0.7-0.9-0.9-1.4c-0.2-0.5-0.5-1-0.8-1.4
			c-0.3-0.5-0.6-0.9-0.8-1.3c-0.4-0.8-0.6-1.8-0.7-2.9c-0.1-1.1-0.1-2.1-0.2-2.9c0-2.7,0.4-5.1,1.1-7c0.8-2,1.4-4.1,1.9-6.4
			c0.2-0.8,0.5-1.5,0.8-2.1c0.3-0.6,0.6-1.3,0.9-2c0.3-0.6,0.7-1.2,1.1-1.7c0.4-0.6,0.8-1.2,1.1-1.9c1-2,2.3-3.6,3.8-4.8
			c0.2-0.2,0.5-0.5,0.8-0.8c0.3-0.3,0.5-0.6,0.6-0.9c0.1-0.4,0-0.9-0.2-1.4c-0.3-0.6-0.4-1.1-0.5-1.6c-0.3-1-0.4-2-0.2-3
			c0.2-1,0.3-2,0.5-2.9c0.1-0.4,0.2-0.8,0.2-1.2c0-0.4,0.1-0.9,0.3-1.4c0.3-0.8,0.7-1.5,1.1-2.1c0.5-0.6,1-1.3,1.6-2
			c0.3-0.3,0.6-0.6,0.8-1c0.2-0.4,0.6-0.6,1-0.8c0.4-0.2,0.8-0.4,1.3-0.5c0.5-0.2,0.9-0.3,1.4-0.4c0.6,0,1.2,0.2,1.9,0.5
			c0.7,0.3,1.2,0.6,1.6,0.8c1,0.6,2,1.6,2.9,3c0.4,0.7,0.8,1.3,1.2,1.9c0.4,0.6,0.7,1.1,0.9,1.7c0.3,0.8,0.6,1.5,0.8,2.2
			c0.3,0.7,0.5,1.4,0.7,2.2c0.3,1.4,0.5,2.8,0.6,4.2c0.1,1.4,0.2,2.8,0.2,4.2c0,2.5-0.2,4.7-0.6,6.6c0,0.7-0.1,1.2-0.2,1.5
			c-0.3,0.7-0.5,1.5-0.6,2.3v0.9c0.2,0.3,0.5,0.5,0.9,0.7c0.4,0.2,0.7,0.3,0.9,0.5c0.5,0.2,0.9,0.4,1.2,0.7c0.3,0.3,0.7,0.4,1.1,0.5
			c0.5,0.1,1,0.2,1.6,0.3c0.6,0.1,1.1,0.2,1.7,0.2c1.1,0,2.1-0.1,3-0.4c0.9-0.2,1.7-0.5,2.3-0.7c0.3-0.2,0.7-0.4,1.1-0.6
			c0.4-0.2,0.7-0.4,0.9-0.6c0.4-0.2,0.8-0.4,1.1-0.7C162.4,124.1,162.7,124.1,163.1,124.3z M143.2,128.6c0.2-0.4,0.4-0.9,0.7-1.4
			c0.2-0.5,0.3-1,0.1-1.5c-0.2-0.4-0.5-0.7-1-0.8c-0.5-0.2-0.9-0.3-1.3-0.5c-0.3-0.2-0.6-0.4-1-0.7c-0.4-0.2-0.7-0.5-1.1-0.8
			c-0.3-0.2-0.7-0.5-1.1-0.8c-0.4-0.3-0.8-0.6-1.1-0.8l-1.2-1.2c-0.2-0.2-0.5-0.4-0.8-0.6c-0.3-0.2-0.6-0.3-0.9-0.3
			c-0.1,0-0.3,0.2-0.7,0.6c-0.4,0.4-0.7,0.9-1.1,1.4c-0.4,0.6-0.8,1.1-1.2,1.6c-0.4,0.5-0.7,0.8-0.8,0.9c-0.6,0.8-1.1,1.7-1.4,2.7
			c-0.3,1-0.7,2-1.2,2.9c-0.2,0.5-0.4,1-0.5,1.5c-0.2,0.5-0.3,1-0.5,1.5c-0.2,0.5-0.4,1-0.5,1.5c-0.2,0.5-0.2,1.1-0.2,1.7
			c0,1.2-0.1,2.4-0.2,3.6c-0.2,1.2-0.2,2.5-0.1,3.8c0.1,0.7,0.2,1.5,0.4,2.4c0.2,0.9,0.4,1.7,0.8,2.4c0.3,0.5,0.7,0.9,1.1,1.3
			c0.4,0.4,0.9,0.5,1.4,0.4c0.9-0.1,1.7-0.4,2.3-0.8c0.6-0.5,1.1-0.9,1.5-1.4c1-0.9,1.9-2.1,2.7-3.5c0.5-0.8,1-1.6,1.4-2.3
			c0.4-0.8,0.8-1.6,1.2-2.5c0.2-0.5,0.4-0.9,0.6-1.3c0.2-0.4,0.4-0.7,0.6-1.1c0.6-1.2,1.2-2.5,1.7-3.8
			C142.3,131.4,142.8,130.1,143.2,128.6z M145.8,117.9c0.3-1.8,0.5-3.7,0.5-5.7c-0.1-1.1-0.2-2.2-0.2-3.2c0-1-0.1-2.1-0.3-3.2
			c-0.1-0.5-0.2-1-0.4-1.4c-0.2-0.5-0.3-0.9-0.5-1.4c-0.3-1.3-0.7-2.4-1.1-3.2c-0.5-0.8-1-1.7-1.6-2.6c-0.4-0.5-0.8-1-1.1-1.5
			c-0.4-0.5-0.8-0.8-1.4-0.9c-0.6-0.1-1.1,0.1-1.6,0.7c-0.5,0.6-0.8,1.1-1,1.6c-0.2,0.4-0.3,0.9-0.4,1.4c-0.1,0.5-0.1,1.1-0.2,1.7
			c0,0.6-0.1,1.2-0.2,1.8c-0.1,0.6-0.1,1.2,0,1.7c0,0.4,0,0.8,0.1,1.1c0,0.4,0.1,0.8,0.1,1.3c0.1,0.4,0.1,0.8,0.1,1.2
			c0,0.4,0,0.8,0.2,1.2c0.2,0.6,0.4,1.3,0.7,2c0.2,0.7,0.5,1.5,0.7,2.3c0.2,0.8,0.4,1.6,0.5,2.5c0.1,0.9,0.4,1.7,0.7,2.5
			c0.3,0.6,0.7,1.2,1.1,1.7c0.5,0.5,0.9,1,1.4,1.5c0.2,0.2,0.6,0.7,1.2,1.4c0.6,0.7,1.1,1,1.5,0.9c0.2-0.1,0.4-0.5,0.5-1.1
			c0.1-0.6,0.2-1.1,0.5-1.4c0.1-0.5,0.2-1,0.2-1.4C145.7,118.8,145.8,118.3,145.8,117.9z"/>
		<path class="st1" d="M196.6,143.3c-1.1,0.8-2.6,1.9-4.4,3.3c-1.8,1.4-3.2,2.5-4.2,3.2c-0.6,0.4-1.5,0.9-2.7,1.5
			c-1.2,0.6-2.2,1-2.9,1.1c-0.5,0-1.1,0-1.9-0.1c-0.8,0-1.3-0.1-1.6-0.2c-0.5-0.2-1-0.6-1.6-1.1c-0.6-0.6-0.9-1.1-1.1-1.6
			c-0.7-1.2-1.1-2.9-1.3-5.1c-0.2-2.2-0.1-4,0.2-5.4c0.2-0.6,0.3-1.2,0.4-1.8c0-0.6,0.2-1.2,0.4-1.7c0.2-0.6,0.3-1.2,0.4-1.7
			c0-0.6,0.2-1.1,0.4-1.7c0.1-0.3,0.2-0.9,0.5-1.7c0.2-0.4,0.4-0.9,0.6-1.5c0.8-2.6,1.5-4.8,2-6.5c0.5-1.7,1.2-3.8,2.1-6.3
			c0.2-0.5,0.3-1,0.3-1.4c0-0.4,0.1-0.9,0.3-1.4c0.1-0.5,0.2-1,0.2-1.4c0-0.4,0.2-0.8,0.4-1.2c0.1-0.5,0.2-0.9,0.3-1.3
			c0.1-0.4,0.2-0.8,0.3-1.3c0.2-0.6,0.2-1.3-0.1-2c-0.3-0.7-0.9-0.7-1.9,0c-0.6,0.5-1.1,1-1.5,1.6c-0.4,0.6-0.9,1.1-1.4,1.6
			c-1.2,1.4-2.2,2.7-2.9,3.9c-0.2,0.3-0.4,0.7-0.7,1.1c-0.3,0.4-0.5,0.8-0.7,1.2c-0.5,0.7-1,1.4-1.4,2c-0.5,0.7-0.9,1.3-1.4,2
			c-0.2,0.4-0.4,0.8-0.7,1.1c-0.3,0.4-0.5,0.7-0.7,1.1c-0.4,0.8-0.9,1.7-1.6,2.6c-0.7,1-1.2,1.8-1.7,2.6c-0.4,0.8-0.8,1.6-1.1,2.3
			c-0.4,0.8-0.7,1.5-1.1,2.3c-0.8,1.5-1.4,2.9-1.9,4.2c-0.5,1.3-1,2.9-1.6,4.8c-0.2,0.8-0.4,1.7-0.7,2.6c-0.3,1-0.5,1.9-0.8,2.8
			c-0.3,0.9-0.6,1.8-1,2.6c-0.4,0.9-0.8,1.5-1.3,2c-0.5,0.7-1.3,1.2-2.3,1.4c-0.7,0.1-1.4,0-2.2-0.2c-0.8-0.3-1.2-0.5-1.4-0.8
			c-0.2-0.3-0.3-0.8-0.4-1.4c-0.1-0.6,0-1.2,0.1-1.8c0.1-0.6,0.2-1.2,0.2-1.8c0-0.6,0.1-1.2,0.2-1.7c0.4-2.2,0.9-4.3,1.4-6.3
			c0.2-1.1,0.5-2.1,0.8-3.1c0.4-1,0.6-1.9,0.8-2.9c0.2-0.5,0.4-1,0.5-1.5c0.1-0.5,0.2-1,0.5-1.5c0.2-0.5,0.4-1,0.5-1.5
			c0.1-0.5,0.2-1,0.5-1.5c0.2-1.1,0.5-2.1,0.8-3c0.4-0.9,0.6-1.9,0.8-3c0.2-0.5,0.3-1,0.4-1.6c0-0.6,0.1-1.1,0.2-1.6
			c0.2-1.1,0.5-2.1,0.8-3.1c0.3-1,0.6-2,0.9-3.1c0.2-1.1,0.4-2.2,0.6-3.2c0.2-1,0.4-2.1,0.6-3.2c0.2-0.5,0.4-1,0.5-1.5
			c0.1-0.5,0.3-1,0.5-1.5c0.1-0.3,0.1-0.6,0.1-1c0-0.4,0-0.6,0.2-0.8c0.2-0.5,0.7-1.1,1.4-1.8c0.8-0.7,1.6-1,2.5-0.8
			c0.5,0,1,0.3,1.5,0.8c0.5,0.6,0.9,1.1,1.1,1.6c0.2,0.5,0.3,1.1,0.4,1.7c0,0.7,0.1,1.2,0.1,1.7c0.1,0.7,0.1,1.3-0.1,1.9
			c-0.2,0.6-0.3,1.1-0.4,1.6c0,0.5,0,0.9,0.1,1.3c0,0.4,0,0.7-0.1,1.1c0,0.6-0.1,1.3-0.3,2.1c-0.2,0.8-0.4,1.5-0.5,2.2
			c-0.2,0.7-0.3,1.3-0.4,2c-0.1,0.8-0.2,1.6-0.3,2.3c-0.1,0.7-0.3,1.4-0.5,2.1c-0.2,0.8-0.4,1.5-0.7,2.2c-0.3,0.7-0.3,1.3-0.1,2
			c0.4-0.1,0.7-0.3,0.9-0.7c0.2-0.4,0.4-0.6,0.6-0.8c1.4-2.1,2.8-4.2,4.1-6.4c1.4-2.2,2.8-4.2,4.3-6.3c0.8-1.1,1.7-2.2,2.6-3.2
			c0.9-1.1,1.9-2.1,2.9-3.2c1-1,2.1-1.9,3.3-2.7c0.5-0.5,1.2-1,2-1.6c0.9-0.6,1.7-0.7,2.6-0.5c0.8,0.2,1.5,0.6,2.1,1.1
			c0.6,0.6,1,1.2,1.2,2c0.2,0.7,0.2,1.5-0.2,2.3c-0.3,0.8-0.6,1.6-0.8,2.3c-0.3,0.7-0.6,1.4-0.8,2c-0.3,0.7-0.5,1.3-0.8,2
			c-1,2.6-2,5.4-2.9,8.2c-0.9,2.9-1.9,5.7-2.9,8.4c-0.4,1.1-0.7,2.2-1,3.3c-0.3,1.1-0.6,2.2-1,3.3c-0.3,0.8-0.7,1.9-1.1,3.2
			c-0.4,1.4-0.8,2.7-1.1,4.1c-0.3,1.4-0.5,2.7-0.6,3.9c-0.1,1.3-0.1,2.2,0.2,2.9c0.3,1,0.8,1.6,1.4,1.9c0.7,0.3,1.4,0.3,2.2,0
			c0.8-0.3,1.6-0.6,2.3-1.1c0.7-0.5,1.3-0.8,1.8-1.1c0.9-0.6,1.9-1.2,2.9-1.9c1-0.7,1.9-1.3,2.8-1.9c0.9-0.6,1.6-1.1,2.2-1.6
			c0.6-0.5,1-0.8,1.2-1c0.4-0.3,0.8-0.6,1.1-0.8c0.3-0.2,0.7-0.5,1.1-0.8c0.7-0.6,1.5-1.2,2.3-1.7c0.8-0.5,1.5-1,2.2-1.6
			c0.7-0.6,1.3-1.1,2-1.6c0.7-0.6,1.4-1.2,2-1.8c0.7-0.6,1.3-1.2,2-1.7c1.1-0.8,2.1-1.7,2.9-2.7c0.9-1,1.8-1.9,2.9-2.7
			c0.4-0.2,0.8-0.5,1.1-0.8c0.4-0.3,0.7-0.6,1.1-0.9c0.3-0.2,0.6-0.5,0.9-0.8c0.3-0.4,0.6-0.7,0.9-1c0.6-0.7,1.3-1.4,2-2
			c0.3-0.3,0.6-0.6,1-1c0.4-0.4,0.7-0.6,1.1-0.8c0.4-0.3,0.8-0.6,1.2-0.8c0.4-0.2,0.8-0.5,1.1-0.8c0.8-0.7,1.5-1.4,2.2-2
			c0.7-0.7,1.4-1.2,2.2-1.7c0.5-0.3,1-0.6,1.4-0.8c0.4-0.2,0.9-0.5,1.4-0.7c0.5-0.2,1-0.4,1.6-0.5c0.6-0.2,1.1-0.4,1.6-0.7
			c0.5-0.2,1-0.4,1.6-0.6c0.6-0.2,1.1-0.4,1.6-0.6c0.8-0.2,1.6-0.4,2.3-0.6c0.7-0.2,1.4-0.4,2-0.5c1.1-0.3,2.5-0.2,4.2,0.3
			c1.2,0.5,2.2,1.2,2.9,2c0.5,0.5,0.9,1.1,1.1,1.9c0.2,0.8,0.2,1.5-0.1,2.3c-0.1,0.3-0.3,0.7-0.6,1.1c-0.3,0.5-0.7,0.8-1.1,1
			c-0.9,0.5-1.6,0.5-2.1,0.1c-0.5-0.5-0.9-1-1.1-1.6c-0.2-0.5-0.3-1-0.2-1.5c0-0.5,0-1-0.2-1.5c-0.2-0.7-0.8-1.2-1.7-1.5
			c-0.9-0.3-1.6-0.5-2-0.5c-0.8,0-1.7,0.2-2.7,0.5c-0.5,0.2-1,0.4-1.4,0.5c-0.5,0.2-0.9,0.3-1.4,0.5c-2.1,0.7-3.9,1.6-5.4,2.6
			c-1.5,1.1-2.9,2.1-4.2,3.2c-0.8,0.6-1.6,1.2-2.3,1.7c-0.7,0.6-1.4,1.1-2.1,1.6c-0.6,0.6-1.2,1.2-1.8,1.8c-0.6,0.6-1.2,1.2-1.7,1.8
			c-0.6,0.7-1.2,1.3-1.9,1.9c-0.7,0.6-1.3,1.1-1.9,1.6c-0.7,0.5-1.3,1.1-1.9,1.7c-0.6,0.6-1.2,1.2-1.9,1.7c-0.6,0.6-1.2,1.2-1.9,1.7
			c-0.7,0.6-1.3,1.1-1.9,1.6c-0.6,0.5-1.2,1-1.9,1.6c-0.7,0.6-1.3,1.1-2,1.6c-0.7,0.5-1.4,1-2.1,1.4c-0.7,0.5-1.4,0.9-2.1,1.4
			c-0.3,0.2-0.6,0.5-0.9,0.8c-0.3,0.3-0.6,0.6-0.9,0.8c-0.4,0.3-0.8,0.6-1.1,0.8C197.2,142.8,196.9,143.1,196.6,143.3z"/>
	</g>
	<g>
		<path class="st2" d="M119.6,169.7c0,1.5-0.4,2.7-1.3,3.5c-0.9,0.8-2.1,1.2-3.7,1.2h-2.6v-9.2h2.9c1.5,0,2.7,0.4,3.5,1.2
			C119.2,167.2,119.6,168.3,119.6,169.7z M117.5,169.8c0-2-0.9-3-2.6-3h-1v6h0.8C116.6,172.8,117.5,171.8,117.5,169.8z"/>
		<path class="st2" d="M126.8,174.4h-5.3v-9.2h5.3v1.6h-3.4v2h3.1v1.6h-3.1v2.4h3.4V174.4z"/>
		<path class="st2" d="M134.2,171.9c0,0.8-0.3,1.5-0.9,2c-0.6,0.5-1.4,0.7-2.5,0.7c-1,0-1.9-0.2-2.6-0.6v-1.8
			c0.6,0.3,1.1,0.5,1.6,0.6c0.4,0.1,0.8,0.2,1.2,0.2c0.4,0,0.8-0.1,1-0.2s0.3-0.4,0.3-0.7c0-0.2-0.1-0.3-0.2-0.5
			c-0.1-0.1-0.3-0.3-0.4-0.4s-0.6-0.3-1.2-0.6c-0.6-0.3-1-0.5-1.3-0.8c-0.3-0.2-0.5-0.5-0.7-0.9c-0.2-0.3-0.3-0.7-0.3-1.1
			c0-0.8,0.3-1.5,0.8-1.9c0.6-0.5,1.3-0.7,2.3-0.7c0.5,0,0.9,0.1,1.4,0.2c0.4,0.1,0.9,0.3,1.4,0.5l-0.6,1.5
			c-0.5-0.2-0.9-0.3-1.2-0.4c-0.3-0.1-0.6-0.1-1-0.1c-0.4,0-0.7,0.1-0.9,0.3c-0.2,0.2-0.3,0.4-0.3,0.7c0,0.2,0,0.3,0.1,0.5
			c0.1,0.1,0.2,0.3,0.4,0.4c0.2,0.1,0.6,0.3,1.2,0.6c0.9,0.4,1.5,0.8,1.8,1.2C134,170.8,134.2,171.3,134.2,171.9z"/>
		<path class="st2" d="M135.8,174.4v-9.2h2v9.2H135.8z"/>
		<path class="st2" d="M143.6,169.3h3.7v4.8c-0.6,0.2-1.2,0.3-1.7,0.4c-0.5,0.1-1.1,0.1-1.6,0.1c-1.4,0-2.5-0.4-3.2-1.2
			c-0.7-0.8-1.1-2-1.1-3.5c0-1.5,0.4-2.7,1.3-3.5c0.9-0.8,2-1.2,3.5-1.2c0.9,0,1.9,0.2,2.7,0.6l-0.7,1.6c-0.7-0.3-1.4-0.5-2.1-0.5
			c-0.8,0-1.5,0.3-2,0.9c-0.5,0.6-0.8,1.3-0.8,2.3c0,1,0.2,1.8,0.6,2.3c0.4,0.5,1,0.8,1.8,0.8c0.4,0,0.8,0,1.2-0.1v-1.9h-1.7V169.3z
			"/>
		<path class="st2" d="M157.7,174.4h-2.5l-4-7h-0.1c0.1,1.2,0.1,2.1,0.1,2.6v4.3h-1.7v-9.2h2.5l4,6.9h0c-0.1-1.2-0.1-2-0.1-2.5v-4.4
			h1.8V174.4z"/>
		<path class="st2" d="M171.9,174.4h-2.4l-0.7-0.7c-0.8,0.6-1.7,0.8-2.7,0.8c-1,0-1.8-0.2-2.4-0.7c-0.6-0.5-0.9-1.1-0.9-1.9
			c0-0.6,0.1-1.1,0.4-1.5c0.3-0.4,0.7-0.8,1.3-1.1c-0.3-0.4-0.5-0.7-0.7-1c-0.1-0.3-0.2-0.7-0.2-1.1c0-0.6,0.2-1.2,0.7-1.5
			c0.5-0.4,1.1-0.6,2-0.6c0.8,0,1.4,0.2,1.9,0.5c0.5,0.4,0.7,0.9,0.7,1.5c0,0.5-0.1,1-0.4,1.4c-0.3,0.4-0.8,0.8-1.4,1.2l1.8,1.7
			c0.3-0.5,0.6-1.1,0.8-1.9h2c-0.2,0.6-0.4,1.1-0.6,1.7c-0.3,0.5-0.6,1-0.9,1.4L171.9,174.4z M164.7,171.8c0,0.4,0.1,0.7,0.4,0.9
			c0.3,0.2,0.6,0.3,1,0.3c0.5,0,1-0.1,1.4-0.4l-2.1-2.1c-0.2,0.2-0.4,0.4-0.6,0.6C164.8,171.3,164.7,171.5,164.7,171.8z M167,167.3
			c0-0.2-0.1-0.4-0.2-0.5c-0.2-0.1-0.3-0.2-0.6-0.2c-0.3,0-0.5,0.1-0.7,0.2c-0.2,0.1-0.2,0.3-0.2,0.6c0,0.4,0.2,0.8,0.6,1.2
			c0.4-0.2,0.6-0.4,0.8-0.6C166.9,167.8,167,167.5,167,167.3z"/>
		<path class="st2" d="M119.6,185.3c0,1.5-0.4,2.7-1.3,3.5c-0.9,0.8-2.1,1.2-3.7,1.2h-2.6v-9.2h2.9c1.5,0,2.7,0.4,3.5,1.2
			C119.2,182.7,119.6,183.8,119.6,185.3z M117.5,185.3c0-2-0.9-3-2.6-3h-1v6h0.8C116.6,188.3,117.5,187.3,117.5,185.3z"/>
		<path class="st2" d="M126.8,190h-5.3v-9.2h5.3v1.6h-3.4v2h3.1v1.6h-3.1v2.4h3.4V190z"/>
		<path class="st2" d="M134,180.7h2l-3.1,9.2h-2.1l-3.1-9.2h2l1.7,5.5c0.1,0.3,0.2,0.7,0.3,1.1c0.1,0.4,0.2,0.7,0.2,0.9
			c0-0.4,0.2-1.1,0.5-2L134,180.7z"/>
		<path class="st2" d="M142.4,190h-5.3v-9.2h5.3v1.6h-3.4v2h3.1v1.6h-3.1v2.4h3.4V190z"/>
		<path class="st2" d="M144.4,190v-9.2h2v7.6h3.7v1.6H144.4z"/>
		<path class="st2" d="M160,185.3c0,1.5-0.4,2.7-1.1,3.5s-1.8,1.2-3.3,1.2c-1.4,0-2.5-0.4-3.3-1.2c-0.8-0.8-1.1-2-1.1-3.5
			c0-1.5,0.4-2.7,1.1-3.5c0.8-0.8,1.8-1.2,3.3-1.2s2.5,0.4,3.3,1.2C159.7,182.6,160,183.8,160,185.3z M153.3,185.3
			c0,1,0.2,1.8,0.6,2.3s1,0.8,1.8,0.8c1.6,0,2.3-1,2.3-3.1c0-2.1-0.8-3.1-2.3-3.1c-0.8,0-1.4,0.3-1.8,0.8
			C153.5,183.5,153.3,184.3,153.3,185.3z"/>
		<path class="st2" d="M168.3,183.6c0,1-0.3,1.8-0.9,2.3c-0.6,0.5-1.5,0.8-2.6,0.8h-0.8v3.3h-2v-9.2h2.9c1.1,0,2,0.2,2.6,0.7
			C168,181.9,168.3,182.6,168.3,183.6z M163.9,185.1h0.6c0.6,0,1.1-0.1,1.4-0.4c0.3-0.2,0.4-0.6,0.4-1c0-0.5-0.1-0.8-0.4-1
			c-0.3-0.2-0.6-0.3-1.2-0.3h-0.9V185.1z"/>
		<path class="st2" d="M174,190l-2.2-7.2h-0.1c0.1,1.5,0.1,2.5,0.1,2.9v4.3h-1.7v-9.2h2.7l2.2,7.1h0l2.3-7.1h2.7v9.2h-1.8v-4.4
			c0-0.2,0-0.4,0-0.7s0-1,0.1-2.1h-0.1l-2.4,7.2H174z"/>
		<path class="st2" d="M187.6,190h-5.3v-9.2h5.3v1.6h-3.4v2h3.1v1.6h-3.1v2.4h3.4V190z"/>
		<path class="st2" d="M197.7,190h-2.5l-4-7h-0.1c0.1,1.2,0.1,2.1,0.1,2.6v4.3h-1.7v-9.2h2.5l4,6.9h0c-0.1-1.2-0.1-2-0.1-2.5v-4.4
			h1.8V190z"/>
		<path class="st2" d="M203.6,190h-2v-7.6h-2.5v-1.6h7v1.6h-2.5V190z"/>
	</g>
</g>
</svg>
