<?xml version="1.0" encoding="utf-8"?>
<!-- Generator: Adobe Illustrator 19.2.1, SVG Export Plug-In . SVG Version: 6.00 Build 0)  -->
<svg version="1.1" id="Layer_1" xmlns="http://www.w3.org/2000/svg" xmlns:xlink="http://www.w3.org/1999/xlink" x="0px" y="0px"
	 viewBox="0 0 259.1 250.4" style="enable-background:new 0 0 259.1 250.4;" xml:space="preserve">
<style type="text/css">
	.st0{fill:#87CFC6;}
	.st1{fill:#FFFFFF;}
</style>
<g>
	<ellipse class="st0" cx="129" cy="124.4" rx="114.2" ry="118.7"/>
	<g>
		<path class="st1" d="M57.8,110.5c-0.2-0.1-0.4-0.1-0.5,0.2c-0.2,0.2-0.3,0.4-0.4,0.6c-0.8,1.1-1.6,2.4-2.3,3.7
			c-0.8,1.3-1.5,2.6-2.2,4c-0.4,0.8-0.8,1.6-1.1,2.3c-0.3,0.7-0.7,1.5-1.1,2.3c-0.5,0.8-0.9,1.6-1.3,2.3c-0.4,0.7-0.7,1.5-1.1,2.3
			c-0.4,0.6-0.8,1.3-1.2,2.1c-0.4,0.8-0.8,1.6-1.2,2.4c-0.3,0.8-0.7,1.6-1.1,2.3c-0.5,0.7-0.9,1.4-1.3,2.1c-0.4,0.7-0.8,1.5-1.1,2.3
			c-0.3,0.8-0.7,1.6-1.1,2.6c-0.3,0.8-0.7,1.9-1.1,3.2c-0.4,1.3-0.9,2.2-1.4,2.6c-0.7,0.5-1.6,0.9-2.6,1.3c-1,0.3-1.9,0.2-2.7-0.3
			c-0.4-0.2-0.8-0.6-1.1-1.3c-0.4-0.6-0.5-1.2-0.5-1.7c0-0.5,0-1.1,0.2-1.8c0.1-0.7,0.2-1.3,0.3-2c0.2-0.6,0.3-1.3,0.3-2
			c0-0.7,0.1-1.3,0.3-1.8c0.2-0.5,0.4-1.1,0.5-1.7c0.2-0.6,0.3-1.2,0.5-1.7c0.2-0.5,0.3-1.1,0.4-1.7c0-0.6,0.2-1.2,0.4-1.7l0.9-3.3
			c0.2-0.6,0.3-1.2,0.5-1.8c0.1-0.6,0.2-1.2,0.3-1.8c0.1-0.6,0.2-1.2,0.4-1.8c0.2-0.6,0.3-1.1,0.5-1.6c0.3-1.1,0.6-2.3,0.9-3.4
			c0.3-1.1,0.6-2.3,0.9-3.4c0.2-0.5,0.4-1.1,0.5-1.6c0.2-0.6,0.3-1.1,0.4-1.6c0.2-1.1,0.4-2.3,0.6-3.6c0.2-1.3,0.5-2.5,0.8-3.8
			l0.9-3.3c0.2-0.6,0.3-1.2,0.5-1.8c0.1-0.6,0.2-1.1,0.5-1.6c-0.3,0.5-0.7,1.1-1.1,1.7c-0.2,0.3-0.5,0.6-0.8,0.9
			c-0.4,0.3-0.6,0.7-0.8,1.1c-0.6,0.7-1.2,1.5-1.7,2.3c-0.5,0.8-1,1.6-1.5,2.4c-0.5,0.7-1.1,1.4-1.7,2.1c-0.6,0.7-1.2,1.4-1.7,2.1
			c-0.5,0.7-1,1.4-1.6,2.1c-0.6,0.7-1.1,1.4-1.7,2.1c-0.6,0.8-1.2,1.6-1.8,2.2c-0.6,0.6-1.2,1.3-1.7,2c-0.5,0.7-1,1.5-1.6,2.3
			c-0.6,0.8-1.2,1.5-1.9,2.1c-0.6,0.6-1.2,1.3-1.9,1.9c-0.7,0.6-1.2,1.3-1.7,2c-0.6,0.8-1.2,1.7-1.7,2.5c-0.5,0.8-1.1,1.7-1.7,2.5
			c-1.2,1.5-2.3,3-3.4,4.8c-1.1,1.7-1.9,3.9-2.6,6.5c-0.2,0.6-0.4,1.2-0.6,1.8c-0.2,0.6-0.4,1.2-0.5,1.8c-0.3,1.1-0.5,2.2-0.5,3.3
			c0,0.4,0.1,1.2,0.4,2.3c0.2,1.1,0.8,1.9,1.6,2.3c0.5,0.3,1,0.5,1.5,0.5c0.5,0.1,1,0.2,1.5,0.4c0.6,0.3,1.1,0.8,1.6,1.4
			c0.5,0.6,0.4,1.5-0.1,2.7c-0.2,0.5-0.6,0.9-1.1,1.3c-0.5,0.3-0.9,0.5-1.2,0.6c-0.8,0.2-1.6,0.1-2.3-0.2c-0.8-0.4-1.4-0.9-1.9-1.5
			c-0.8-1-1.5-2.3-2-3.8c-0.5-2.1-0.6-3.8-0.3-5.2c0.3-1.4,0.7-3.1,1.2-5.2c0.2-0.6,0.4-1.3,0.6-1.9c0.2-0.6,0.4-1.3,0.6-1.9
			c0.3-0.6,0.5-1.3,0.7-1.9c0.2-0.6,0.3-1.3,0.5-1.9c0.4-1,0.9-2.1,1.5-3.1c0.6-0.9,1.2-1.8,1.8-2.6c0.6-0.8,1.3-1.6,2-2.4
			c0.4-0.4,0.7-0.8,1-1.3c0.2-0.4,0.5-0.9,0.8-1.4c0.2-0.5,0.5-1,0.8-1.3c0.3-0.4,0.7-0.8,1-1.2c0.3-0.4,0.6-0.8,0.9-1.2
			c0.3-0.4,0.7-0.7,1.1-1c0.3-0.3,0.6-0.6,1-0.9c0.3-0.3,0.6-0.7,0.8-1.1c0.4-0.4,0.7-0.8,1-1.3c0.2-0.4,0.5-0.8,0.8-1.3
			c0.8-1.1,1.7-2.2,2.7-3.3c1-1,1.9-2.1,2.7-3.3c0.6-0.8,1.2-1.6,1.8-2.3c0.6-0.7,1.2-1.4,1.8-2.3c0.6-0.8,1.2-1.6,1.8-2.3
			c0.6-0.7,1.2-1.5,1.7-2.3c0.2-0.5,0.5-1,0.8-1.4c0.3-0.4,0.6-0.8,0.9-1.3c0.3-0.3,0.6-0.6,0.9-1c0.3-0.4,0.6-0.8,0.9-1.2
			c0.5-0.8,1.1-1.6,1.7-2.4c0.7-0.8,1.2-1.6,1.7-2.4l0.2-0.3c0.2-0.3,0.3-0.6,0.4-0.9c0-0.3,0.2-0.5,0.4-0.7
			c0.2-0.5,0.6-1.1,1.2-1.8c0.6-0.7,1.2-1.1,1.7-1.3c1.4-0.5,2.7-0.3,3.8,0.7c1.1,1,1.7,2.1,1.8,3.2c0.1,1.4-0.1,2.6-0.5,3.8
			c-0.4,1.1-0.7,2.3-0.9,3.4c-0.2,0.5-0.3,1.1-0.3,1.6c0,0.6-0.1,1.1-0.2,1.6c-0.1,0.5-0.2,1-0.3,1.6c-0.1,0.5-0.3,1-0.5,1.6
			c-0.3,1.1-0.5,2.3-0.5,3.4c-0.1,1.1-0.2,2.2-0.5,3.2c-0.2,0.5-0.4,1-0.5,1.4c-0.2,0.4-0.3,0.9-0.5,1.4c-0.2,0.5-0.4,1-0.5,1.4
			c-0.2,0.4-0.3,0.8-0.5,1.3c-0.2,0.5-0.3,1.1-0.4,1.7c-0.1,0.6-0.2,1.2-0.4,1.7c-0.3,1-0.6,2.1-0.8,3.1c-0.3,1-0.5,2.1-0.8,3.3
			c-0.2,0.5-0.4,1-0.5,1.6c-0.2,0.5-0.2,1.1-0.2,1.7c0.4-0.1,0.7-0.3,0.9-0.7c0.2-0.4,0.4-0.6,0.6-0.9c1.2-2.4,2.3-4.8,3.4-7.2
			c1.1-2.4,2.3-4.7,3.7-7c0.8-1.3,1.6-2.5,2.3-3.8c0.7-1.3,1.5-2.6,2.3-4.1c0.7-1.1,1.6-2.3,2.7-3.4c0.5-0.5,1.1-1.1,1.9-1.7
			c0.8-0.6,1.6-0.8,2.5-0.6c0.5,0.2,1,0.6,1.6,1.1c0.5,0.5,0.9,1,1,1.6c0.2,0.5,0.2,1.1,0.1,1.6c-0.2,0.6-0.3,1.1-0.4,1.6
			c-0.2,0.5-0.3,1.1-0.4,1.6c-0.1,0.6-0.1,1.1-0.2,1.6c-0.6,2.2-1.2,4.2-1.8,6.1c-0.4,1-0.8,2-1.1,3c-0.4,0.9-0.6,1.9-0.8,2.8
			l-0.9,3.3c-0.2,0.5-0.4,1-0.5,1.6c-0.1,0.5-0.2,1-0.2,1.6c0.4,0,0.7-0.1,0.8-0.4c0.1-0.3,0.2-0.5,0.5-0.7c1.1-1.7,2.1-3.4,3-5.1
			s1.9-3.5,3-5.2c0.6-1,1.2-2,1.8-3c0.6-0.9,1.2-1.9,1.8-2.8c0.3-0.5,0.6-1,0.8-1.5c0.2-0.5,0.6-1,1-1.5l1.8-2.8
			c0.6-0.9,1.2-1.9,1.7-2.9c0.5-1,1.1-2,1.7-3c0.6-0.9,1.2-1.8,1.9-2.7c0.7-0.9,1.3-1.8,2-2.7c0.8-1.3,1.8-2.5,3-3.8
			c1.2-1.3,2.5-2.4,3.8-3.4c0.5-0.3,1-0.6,1.4-1c0.5-0.4,0.9-0.6,1.3-0.9c0.5-0.2,1.3-0.3,2.3-0.4c1.1-0.1,1.8,0,2.3,0.2
			c0.7,0.2,1.3,0.8,1.7,1.8c0.4,1,0.6,2,0.6,3c0,0.5-0.1,1-0.2,1.6c-0.1,0.5-0.2,1.1-0.3,1.7c-0.1,0.5-0.2,1-0.2,1.5
			c-0.1,0.5-0.2,1-0.4,1.5c-0.2,0.9-0.4,1.9-0.6,3c-0.2,1-0.5,2-0.8,2.8c-0.4,0.8-0.7,1.7-1,2.7c-0.3,0.9-0.5,1.9-0.8,2.8
			c-0.3,0.9-0.6,1.9-0.8,2.7c-0.3,0.9-0.5,1.9-0.7,2.9c-0.5,2.1-1.1,3.9-1.8,5.5c-0.7,1.6-1.3,3.4-1.8,5.2c-0.6,2.8-1.4,5.7-2.3,8.6
			c-0.2,0.4-0.4,0.8-0.5,1.3c-0.1,0.4-0.3,0.9-0.5,1.4c-0.1,0.5-0.2,1-0.2,1.5c0,0.5-0.1,1-0.3,1.5c-0.6,1.9-1.1,3.6-1.5,5.3
			c0,0.3-0.1,0.7-0.2,1.2c-0.2,0.5-0.3,0.9-0.3,1.4c-0.1,0.5,0,0.9,0.1,1.3c0.1,0.4,0.3,0.7,0.8,0.8c0.5,0.2,1.1,0.1,1.8-0.2
			c0.7-0.4,1.3-0.6,1.8-0.9c1.5-0.7,2.9-1.7,4.1-3c1.2-1.3,2.3-2.6,3.2-4.1c0.7-1,1.3-2,1.9-3c0.5-0.9,1.1-2,1.7-3.1
			c0.2-0.5,0.5-1,0.8-1.6c0.3-0.5,0.5-1.1,0.8-1.7c0.2-0.5,0.5-1.4,1-2.5c0.5-1.1,0.8-1.9,1.1-2.3c0.2-0.2,0.3-0.4,0.4-0.6
			c0-0.2,0.2-0.5,0.4-0.8c0.2-0.4,0.5-0.9,0.8-1.6c0.4-0.6,0.8-0.8,1.3-0.6c0.3,0.2,0.4,0.5,0.3,0.9c-0.1,0.4-0.3,0.9-0.5,1.4
			c-0.2,0.4-0.4,0.8-0.5,1.2c-0.2,0.4-0.3,0.7-0.5,1c-0.7,1.5-1.2,2.6-1.5,3.4c-0.3,0.8-0.9,1.9-1.7,3.4c-0.3,0.4-0.6,0.8-0.8,1.2
			c-0.2,0.4-0.4,0.8-0.6,1.3c-0.3,0.4-0.6,0.8-0.8,1.3c-0.2,0.4-0.4,0.8-0.6,1.3c-0.5,0.8-1,1.6-1.5,2.3c-0.5,0.7-1,1.4-1.5,2.3
			c-0.5,0.7-1.1,1.4-1.7,2c-0.7,0.6-1.3,1.3-2,1.9c-0.7,0.5-1.5,1-2.3,1.6c-0.8,0.5-1.6,0.9-2.4,1.3c-1.2,0.5-2.2,0.9-2.9,1.2
			c-0.7,0.3-1.7,0.3-2.9,0.2c-2.5-0.2-4.2-1.1-5-2.8c-0.5-1.1-0.6-2.3-0.4-3.5c0.2-1.2,0.5-2.4,0.8-3.5c0.2-0.7,0.3-1.4,0.4-2.1
			c0-0.7,0.2-1.3,0.4-2c0.3-1.3,0.7-2.5,1.1-3.8c0.4-1.3,0.8-2.5,1.1-3.8c0.3-1.3,0.6-2.5,0.8-3.8c0.2-1.3,0.5-2.6,0.8-4
			c0.1-0.3,0.2-0.6,0.2-1c0-0.4,0-0.7,0.2-1c0.2-0.8,0.5-1.7,0.8-2.7c0.3-0.9,0.6-1.8,0.8-2.7c0.2-0.5,0.3-1,0.3-1.6
			c0-0.5,0.1-1,0.3-1.6c0.2-0.5,0.4-1,0.5-1.4c0.2-0.4,0.3-0.9,0.5-1.4c0.2-0.9,0.4-1.9,0.6-2.9c0.2-1,0.5-2,0.8-3
			c0.3-0.9,0.6-1.9,0.8-2.9c0.2-1,0.5-2,0.7-3c0.2-0.5,0.4-1.2,0.5-2.1c0.2-0.9,0.3-1.7,0.5-2.6c0.1-0.7,0-1.2-0.2-1.3
			c-0.2-0.2-0.5-0.1-0.9,0.1c-0.4,0.2-0.8,0.5-1.2,0.9c-0.4,0.4-0.7,0.8-0.9,1.1c-0.8,0.9-1.6,1.9-2.3,2.8c-0.7,0.9-1.4,2-2.1,3.1
			c-0.8,1-1.5,2.1-2.1,3.1c-0.6,1-1.3,2.1-2,3.3c-0.7,1.1-1.4,2.1-2.1,3c-0.7,1.1-1.3,2.2-1.9,3.3c-0.6,1-1.2,2.1-2,3.3
			c-1.4,2-2.7,4.1-3.9,6.4c-1.2,2.3-2.5,4.5-3.8,6.6c-0.7,1.1-1.3,2.3-1.8,3.5c-0.5,1.2-1,2.4-1.5,3.5c-0.6,1.1-1.2,2.3-1.7,3.5
			c-0.5,1.2-1.1,2.4-1.8,3.5c-0.5,0.8-1.3,1.6-2.3,2.3c-1.1,0.7-2.2,0.8-3.5,0.3c-0.9-0.4-1.5-1-1.7-1.7c-0.1-0.5-0.1-1.3,0.1-2.2
			c0.2-0.9,0.3-1.7,0.4-2.2c0.3-1.5,0.6-2.9,0.8-4.2c0.2-1.4,0.6-2.7,1-3.9c0.5-1.8,1.1-3.6,1.9-5.4c0.8-1.8,1.3-3.7,1.7-5.5
			c0.3-1.4,0.7-2.6,1.1-3.8C57.4,113.3,57.7,112,57.8,110.5z"/>
		<path class="st1" d="M128,122.6c0.3,0.2,0.4,0.5,0.4,0.8c-0.1,0.3-0.2,0.7-0.5,1c-0.3,0.4-0.6,0.7-0.9,0.9
			c-0.3,0.3-0.5,0.4-0.6,0.5c-1.2,0.9-2.3,1.9-3.2,3c-0.9,1-1.9,2-3,2.8c-0.5,0.5-1,1-1.6,1.3c-0.6,0.4-1.1,0.8-1.6,1.3
			c-0.5,0.5-1,1-1.5,1.3c-0.5,0.4-1,0.8-1.5,1.3c-1.1,1-2.2,2-3.2,2.7c-1.1,0.8-2.1,1.6-3.2,2.6c-0.5,0.5-1.1,1-1.7,1.5
			c-0.6,0.5-1,1-1.2,1.5c-0.3,0.5-0.5,1.1-0.5,1.7c-0.1,0.6-0.2,1.2-0.4,1.7c-0.2,0.6-0.3,1.3-0.3,1.9c0,0.6-0.1,1.2-0.2,1.7
			l-0.9,3.3c-0.2,0.6-0.3,1.3-0.4,1.9c-0.1,0.6-0.2,1.2-0.4,1.7c-0.5,1.8-1.1,3.9-1.9,6.3c-0.8,2.4-1.5,4.5-2.3,6.2
			c-0.5,0.9-0.9,1.9-1.3,2.8c-0.3,0.9-0.8,1.9-1.3,2.8c-0.5,0.9-1.1,1.8-1.7,2.5c-0.2,0.4-0.5,0.8-0.8,1.1c-0.3,0.3-0.6,0.7-0.8,1.1
			c-0.5,0.8-1,1.6-1.6,2.3c-0.5,0.7-1.2,1.5-2,2.2c-0.7,0.6-1.3,1.3-1.9,2c-0.6,0.7-1.2,1.3-2,1.8c-0.5,0.4-1.1,0.8-1.7,1.2
			c-0.6,0.4-1.2,0.7-1.8,1c-0.6,0.3-1.2,0.7-1.7,1.1c-0.5,0.4-1.1,0.8-1.7,1.1c-1.2,0.7-2.4,1.3-3.5,1.8c-1.2,0.5-2.6,0.8-4.3,1
			c-0.1,0.1-0.2,0.2-0.3,0.2c-1.7,0.1-3.2,0-4.5-0.2c-1.3-0.3-2.4-0.8-3.2-1.6c-0.5-0.6-0.9-1.5-1.3-2.5c-0.3-1-0.4-2.2-0.1-3.6
			c0.3-1.1,0.8-2.2,1.5-3.3c0.7-1,1.4-2,2.1-2.8c2.9-3.8,5.8-7.2,8.7-10.5c1.5-1.6,3.1-3.2,4.7-4.8c1.7-1.7,3.2-3.2,4.7-4.7
			c0.4-0.5,0.8-0.9,1.1-1.3c0.4-0.3,0.8-0.7,1.3-1.1c1.1-1.3,2.3-2.4,3.5-3.5c1.2-1.1,2.5-2.3,3.8-3.5c0.6-0.7,1.4-1.5,2.4-2.2
			c0.3-0.3,0.7-0.7,1.3-1.2c0.6-0.5,0.9-0.9,1.1-1.2c0.2-0.5,0.3-1.3,0.4-2.2c0-0.9,0.1-1.7,0.2-2.2c0.8-3.9,1.5-7.4,2.1-10.8
			c0.6-3.3,1.4-7,2.4-10.9c0.1-0.3,0.2-0.9,0.4-1.7c0.2-0.8,0.3-1.7,0.5-2.7c0.2-0.9,0.4-1.8,0.5-2.7c0.2-0.9,0.3-1.5,0.4-1.8
			c0.5-2.5,1.1-4.8,1.8-6.9c0.7-2.1,1.4-4.2,2-6.5c0.7-2.2,1.6-4.1,2.9-5.7c0.5-0.5,1-1.1,1.4-1.6c0.4-0.6,0.9-1.1,1.5-1.6
			c0.6-0.4,1-0.7,1.2-0.8c1.9,0.2,2.9,1.1,2.9,2.7c0,1.6-0.2,3.1-0.7,4.5c-0.6,1.6-1.1,3.3-1.4,5.3c-0.2,0.9-0.4,1.9-0.7,2.7
			c-0.3,0.9-0.5,1.7-0.8,2.6c-0.2,0.9-0.4,1.9-0.6,2.8c-0.2,0.9-0.4,1.9-0.6,2.8c-0.1,0.5-0.3,1.3-0.6,2.3c-0.3,1-0.6,2-1,3.1
			c-0.4,1.1-0.7,2.2-1,3.2c-0.3,1-0.5,1.8-0.6,2.2c-0.2,0.9-0.4,1.9-0.5,2.9c-0.2,1-0.4,1.9-0.7,2.7c-0.2,0.5-0.5,1.3-0.8,2.4
			c-0.3,1.1-0.6,2.2-0.9,3.3c-0.3,1.1-0.5,2.1-0.6,2.9c-0.1,0.8-0.1,1.3,0.2,1.4c0.3,0.1,0.8-0.2,1.6-0.9c0.8-0.7,1.2-1.1,1.4-1.3
			c0.4-0.3,0.9-0.7,1.4-1.1c0.6-0.4,1-0.8,1.4-1.3c0.9-0.8,1.8-1.6,2.8-2.3c1-0.7,1.8-1.5,2.6-2.3c1-0.8,2-1.6,2.9-2.4
			c0.9-0.8,1.8-1.6,2.6-2.6c0.6-0.6,1.3-1.2,2-1.8c0.7-0.6,1.4-1.2,2.1-2C127.1,122.5,127.6,122.3,128,122.6z M94.8,156.5
			c0.1-0.3,0.3-0.9,0.5-1.6c0.2-0.8,0.2-1.3-0.2-1.5c-0.2-0.1-0.6,0.1-1.1,0.5c-0.5,0.5-1,0.9-1.3,1.2c-0.6,0.6-1.3,1.3-2,2.1
			s-1.5,1.5-2.2,2.1c-1.1,0.9-2.2,1.9-3.2,3c-1.1,1-2.1,2.1-3.1,3.3c-0.4,0.4-0.8,0.8-1.1,1.2c-0.3,0.4-0.7,0.8-1.1,1.2
			c-1,1.1-2,2.2-3.1,3.1c-1.1,0.9-2.1,2-3.2,3.1c-0.7,0.7-1.4,1.5-2,2.2c-0.7,0.7-1.3,1.5-2,2.3c-1,1.1-2,2.3-2.9,3.5
			c-1,1.2-1.9,2.4-2.8,3.7c-0.3,0.5-0.6,1-1,1.3c-0.3,0.4-0.6,0.8-0.8,1.3c-0.8,1.6-0.9,3-0.2,4.4c0.7,1.4,1.5,2.2,2.4,2.7
			c0.5,0.2,1.2,0.3,2.2,0.4c1,0.1,1.7,0.1,2.2,0.1c1.7-0.2,3.4-0.7,5.1-1.6c1.7-0.8,3.2-1.7,4.5-2.5c2.4-1.6,4.4-3.3,5.9-5.1
			c1.5-1.8,2.8-3.8,3.8-5.9c1.1-2.1,1.9-4.4,2.6-6.7c0.7-2.3,1.4-4.8,2.1-7.3c0.5-1.7,0.9-3.4,1.1-5.2
			C94.1,159.9,94.4,158.2,94.8,156.5z M116.9,79.9c-3.2,0.2-4.7-1.3-4.4-4.5c0.1-0.5,0.2-0.9,0.3-1.3c0.1-0.3,0.2-0.7,0.5-1.1
			c0.4-0.8,0.8-1.4,1.1-1.8c0.3-0.4,0.8-0.9,1.4-1.5c0.4-0.3,0.8-0.7,1.1-1.1c0.3-0.4,0.7-0.8,1.1-1.1c0.8-0.6,1.6-1,2.3-1.2
			c0.7-0.2,1.6-0.1,2.7,0.1c1.2,0.2,2,0.6,2.5,1.2c0.5,0.6,0.8,1.5,1,2.9c0.1,0.5,0.2,1.1,0.2,1.9c0,0.7-0.1,1.4-0.3,1.9
			c-0.3,0.8-0.8,1.5-1.5,2c-0.7,0.5-1.4,0.9-2,1.3c-0.4,0.3-1.1,0.7-2.1,1.1c-0.6,0.3-1.2,0.6-1.7,0.9
			C118.3,79.8,117.7,79.9,116.9,79.9z"/>
		<path class="st1" d="M163,121.3c0.6,0.4,0.7,0.9,0.2,1.3c-0.5,0.5-0.9,0.8-1.2,1c-0.8,0.4-1.6,0.8-2.3,1.1
			c-0.7,0.3-1.6,0.6-2.6,0.8c-0.5,0.1-1,0.2-1.6,0.3c-0.6,0.1-1.1,0.2-1.6,0.2c-0.7,0-1.5-0.1-2.3-0.2c-0.8-0.2-1.5-0.3-2-0.5
			c-0.3-0.1-0.6-0.2-1-0.3c-0.4-0.1-0.7-0.2-1-0.3c-0.3-0.2-0.6-0.4-0.8-0.6c-0.3-0.2-0.5-0.3-0.8-0.2c-0.4,0-0.7,0.3-1,0.9
			c-0.3,0.6-0.4,1.1-0.5,1.6c-0.1,0.5-0.2,1-0.3,1.5c-0.1,0.5-0.3,1-0.5,1.5c-0.2,0.5-0.4,1-0.6,1.4c-0.2,0.4-0.4,0.8-0.6,1.3
			c-0.2,0.5-0.4,1-0.7,1.3c-0.3,0.4-0.5,0.8-0.7,1.3c-0.5,1.5-1.1,2.8-1.7,4.1c-0.6,1.3-1.3,2.5-2.1,3.8c-0.1,0.2-0.2,0.4-0.3,0.6
			c-0.1,0.2-0.3,0.4-0.5,0.6c-0.2,0.2-0.3,0.4-0.3,0.6c0,0.2-0.1,0.4-0.3,0.6c-0.2,0.3-0.7,0.8-1.5,1.4c-0.2,0.2-0.4,0.4-0.7,0.7
			c-0.3,0.3-0.5,0.5-0.7,0.7c-0.2,0.2-0.5,0.4-0.8,0.5c-0.3,0.1-0.6,0.3-0.8,0.5c-0.3,0.2-0.5,0.4-0.7,0.5c-0.2,0.1-0.4,0.2-0.8,0.3
			c-1.7,0.2-3.3,0.1-4.7-0.3c-1.4-0.4-2.6-1-3.5-1.9c-0.3-0.3-0.7-0.7-1.1-1.2c-0.4-0.5-0.7-1-0.9-1.5c-0.2-0.5-0.5-1-0.8-1.5
			c-0.3-0.5-0.6-0.9-0.8-1.3c-0.4-0.8-0.6-1.8-0.7-3c-0.1-1.1-0.1-2.1-0.2-3c0-2.8,0.4-5.2,1.1-7.3s1.4-4.2,1.9-6.6
			c0.2-0.8,0.5-1.6,0.8-2.2c0.3-0.6,0.6-1.3,0.9-2c0.3-0.6,0.7-1.2,1.1-1.8c0.4-0.6,0.8-1.2,1.1-2c1-2.1,2.3-3.8,3.8-5
			c0.2-0.2,0.5-0.5,0.8-0.8c0.3-0.3,0.5-0.6,0.6-0.9c0.1-0.4,0-0.9-0.2-1.5c-0.3-0.6-0.4-1.1-0.5-1.6c-0.3-1-0.4-2.1-0.2-3.1
			c0.2-1,0.3-2,0.5-3c0.1-0.4,0.2-0.8,0.2-1.3c0-0.4,0.1-0.9,0.3-1.4c0.3-0.8,0.7-1.6,1.1-2.2c0.5-0.6,1-1.3,1.6-2
			c0.3-0.3,0.6-0.6,0.8-1c0.2-0.4,0.6-0.6,1-0.9c0.4-0.2,0.8-0.4,1.3-0.5c0.5-0.2,0.9-0.3,1.4-0.4c0.6,0,1.2,0.2,1.9,0.5
			c0.7,0.3,1.2,0.6,1.6,0.8c1,0.6,2,1.7,2.9,3.1c0.4,0.7,0.8,1.4,1.2,2c0.4,0.6,0.7,1.2,0.9,1.8c0.3,0.8,0.6,1.6,0.8,2.3
			c0.2,0.7,0.5,1.4,0.7,2.3c0.3,1.5,0.5,2.9,0.6,4.4c0.1,1.5,0.2,2.9,0.2,4.4c0,2.6-0.2,4.9-0.6,6.9c0,0.7-0.1,1.3-0.2,1.6
			c-0.3,0.7-0.5,1.5-0.6,2.3v0.9c0.2,0.3,0.5,0.5,0.9,0.7c0.4,0.2,0.7,0.3,0.9,0.5c0.5,0.2,0.9,0.4,1.2,0.7c0.3,0.3,0.7,0.4,1.1,0.5
			c0.5,0.1,1,0.2,1.6,0.3c0.5,0.1,1.1,0.2,1.7,0.2c1.1,0,2.1-0.1,3-0.4c0.9-0.3,1.7-0.5,2.3-0.7c0.3-0.2,0.7-0.4,1.1-0.6
			c0.4-0.2,0.7-0.4,0.9-0.6c0.4-0.2,0.8-0.4,1.1-0.7C162.3,121.1,162.6,121.1,163,121.3z M143.2,125.9c0.2-0.4,0.4-0.9,0.7-1.4
			c0.2-0.5,0.3-1,0.1-1.6c-0.2-0.4-0.5-0.7-1-0.9c-0.5-0.2-0.9-0.3-1.3-0.5c-0.3-0.2-0.6-0.4-1-0.7c-0.4-0.3-0.7-0.5-1.1-0.9
			c-0.3-0.2-0.7-0.5-1.1-0.8c-0.4-0.3-0.8-0.6-1.1-0.8l-1.2-1.3c-0.2-0.2-0.5-0.4-0.8-0.6c-0.3-0.2-0.6-0.3-0.9-0.3
			c-0.1,0-0.3,0.2-0.7,0.6c-0.4,0.4-0.7,0.9-1.1,1.5c-0.4,0.6-0.8,1.1-1.2,1.6c-0.4,0.5-0.7,0.8-0.8,0.9c-0.6,0.8-1.1,1.8-1.4,2.8
			c-0.3,1-0.7,2-1.2,3c-0.2,0.5-0.4,1-0.5,1.6c-0.2,0.5-0.3,1-0.5,1.6c-0.2,0.5-0.4,1-0.5,1.6c-0.2,0.5-0.2,1.1-0.2,1.7
			c0,1.3-0.1,2.5-0.2,3.8c-0.2,1.3-0.2,2.6-0.1,3.9c0.1,0.7,0.2,1.6,0.4,2.5c0.2,0.9,0.4,1.8,0.8,2.5c0.3,0.5,0.7,1,1.1,1.3
			c0.4,0.4,0.9,0.5,1.4,0.4c0.9-0.1,1.7-0.4,2.3-0.9c0.6-0.5,1.1-1,1.5-1.5c1-0.9,1.9-2.1,2.7-3.6c0.5-0.8,1-1.6,1.4-2.4
			c0.4-0.8,0.8-1.6,1.2-2.6c0.2-0.5,0.4-1,0.6-1.3c0.2-0.4,0.4-0.8,0.6-1.2c0.6-1.3,1.2-2.6,1.7-3.9
			C142.3,128.7,142.8,127.3,143.2,125.9z M145.7,114.8c0.3-1.9,0.5-3.9,0.5-5.9c-0.1-1.1-0.2-2.2-0.2-3.3c0-1-0.1-2.1-0.3-3.3
			c-0.1-0.5-0.2-1-0.4-1.5c-0.2-0.5-0.3-1-0.5-1.5c-0.3-1.4-0.7-2.4-1.1-3.3c-0.5-0.8-1-1.7-1.6-2.7c-0.4-0.5-0.8-1-1.1-1.6
			c-0.4-0.5-0.8-0.8-1.4-0.9c-0.6-0.1-1.1,0.1-1.6,0.7c-0.5,0.6-0.8,1.1-1,1.6c-0.2,0.4-0.3,0.9-0.4,1.4c-0.1,0.5-0.1,1.1-0.2,1.7
			c0,0.6-0.1,1.3-0.2,1.9c-0.1,0.6-0.1,1.2,0,1.7c0,0.4,0,0.8,0.1,1.2c0,0.4,0.1,0.8,0.1,1.3c0.1,0.4,0.2,0.8,0.2,1.3
			c0,0.4,0,0.8,0.2,1.3c0.2,0.6,0.4,1.3,0.7,2c0.2,0.7,0.5,1.5,0.7,2.3c0.2,0.8,0.4,1.7,0.5,2.6c0.2,0.9,0.4,1.7,0.7,2.6
			c0.3,0.6,0.7,1.2,1.1,1.7c0.5,0.5,0.9,1,1.4,1.6c0.2,0.2,0.6,0.7,1.2,1.4c0.6,0.7,1.1,1,1.5,0.9c0.2-0.1,0.4-0.5,0.5-1.1
			c0.1-0.6,0.2-1.1,0.5-1.4c0.1-0.5,0.2-1,0.2-1.5C145.7,115.6,145.7,115.2,145.7,114.8z"/>
		<path class="st1" d="M196.4,141c-1.1,0.8-2.6,2-4.4,3.4c-1.8,1.5-3.2,2.6-4.2,3.3c-0.6,0.4-1.5,0.9-2.7,1.6
			c-1.2,0.6-2.2,1-2.9,1.1c-0.5,0-1.1,0-1.9-0.1c-0.8-0.1-1.3-0.1-1.6-0.2c-0.5-0.2-1-0.6-1.6-1.2c-0.6-0.6-0.9-1.1-1.1-1.6
			c-0.7-1.3-1.1-3-1.3-5.3c-0.2-2.3-0.1-4.2,0.2-5.6c0.2-0.6,0.3-1.3,0.4-1.9c0-0.6,0.2-1.2,0.4-1.7c0.2-0.6,0.3-1.2,0.4-1.8
			c0-0.6,0.2-1.2,0.4-1.8c0.1-0.3,0.2-0.9,0.5-1.7c0.2-0.4,0.4-0.9,0.6-1.6c0.8-2.7,1.5-4.9,2-6.7c0.5-1.8,1.2-4,2.1-6.6
			c0.2-0.5,0.3-1,0.3-1.4c0-0.4,0.1-0.9,0.3-1.4c0.1-0.5,0.2-1,0.2-1.4c0-0.4,0.2-0.8,0.4-1.3c0.1-0.5,0.2-1,0.3-1.3
			c0.1-0.4,0.2-0.8,0.3-1.3c0.2-0.6,0.2-1.3-0.1-2c-0.3-0.7-0.9-0.7-1.9,0c-0.6,0.5-1.1,1.1-1.5,1.6c-0.4,0.6-0.9,1.1-1.4,1.6
			c-1.2,1.5-2.2,2.8-2.9,4.1c-0.2,0.3-0.4,0.7-0.7,1.1c-0.3,0.4-0.5,0.8-0.7,1.3c-0.5,0.7-1,1.4-1.4,2.1c-0.5,0.7-0.9,1.4-1.4,2.1
			c-0.2,0.4-0.4,0.8-0.7,1.2c-0.3,0.4-0.5,0.8-0.7,1.2c-0.4,0.8-0.9,1.7-1.6,2.7c-0.7,1-1.2,1.9-1.7,2.7c-0.4,0.8-0.8,1.6-1.1,2.4
			c-0.4,0.8-0.7,1.6-1.1,2.4c-0.8,1.6-1.4,3-1.9,4.4c-0.5,1.4-1,3-1.6,5c-0.2,0.8-0.4,1.7-0.7,2.7c-0.3,1-0.5,2-0.8,2.9
			c-0.3,0.9-0.6,1.9-1,2.7c-0.4,0.9-0.8,1.6-1.3,2.1c-0.5,0.7-1.3,1.2-2.3,1.4c-0.7,0.1-1.4,0-2.2-0.2c-0.8-0.3-1.2-0.5-1.4-0.9
			c-0.2-0.3-0.3-0.8-0.4-1.4c-0.1-0.6,0-1.3,0.1-1.9c0.1-0.6,0.2-1.3,0.2-1.9c0-0.6,0.1-1.2,0.2-1.7c0.4-2.3,0.9-4.5,1.4-6.6
			c0.2-1.1,0.5-2.2,0.8-3.2c0.4-1,0.6-2,0.8-3c0.2-0.5,0.3-1,0.5-1.6c0.1-0.5,0.2-1,0.5-1.6c0.2-0.5,0.3-1,0.5-1.6
			c0.1-0.5,0.2-1,0.5-1.6c0.2-1.1,0.5-2.2,0.8-3.1c0.3-0.9,0.6-2,0.8-3.1c0.2-0.5,0.3-1.1,0.4-1.6c0-0.6,0.1-1.1,0.2-1.6
			c0.2-1.1,0.5-2.2,0.8-3.2c0.3-1,0.6-2.1,0.9-3.2c0.2-1.1,0.4-2.2,0.6-3.3c0.2-1,0.4-2.1,0.6-3.3c0.2-0.5,0.4-1,0.5-1.6
			c0.1-0.5,0.2-1,0.5-1.6c0.1-0.3,0.2-0.6,0.2-1c0-0.4,0-0.6,0.2-0.9c0.2-0.5,0.7-1.1,1.4-1.9c0.8-0.7,1.6-1,2.5-0.8
			c0.5,0,1,0.3,1.5,0.9c0.5,0.6,0.9,1.1,1.1,1.6c0.2,0.5,0.3,1.1,0.4,1.8c0,0.7,0.1,1.3,0.1,1.8c0.1,0.7,0.1,1.4-0.1,2
			c-0.2,0.6-0.3,1.1-0.4,1.6c0,0.5,0,1,0.1,1.3c0,0.4,0,0.8-0.1,1.2c0,0.6-0.1,1.4-0.3,2.2c-0.2,0.8-0.4,1.6-0.5,2.3
			c-0.2,0.7-0.3,1.4-0.4,2.1c-0.1,0.8-0.2,1.6-0.3,2.3c-0.1,0.7-0.3,1.5-0.5,2.2c-0.2,0.8-0.4,1.6-0.7,2.3c-0.3,0.7-0.3,1.4-0.1,2.1
			c0.4-0.1,0.7-0.3,0.9-0.7c0.2-0.4,0.4-0.6,0.6-0.9c1.4-2.2,2.8-4.4,4.1-6.6c1.4-2.2,2.8-4.4,4.3-6.5c0.8-1.1,1.7-2.3,2.6-3.4
			c0.9-1.1,1.9-2.2,2.9-3.4c1-1,2.1-2,3.3-2.8c0.5-0.5,1.2-1.1,2-1.6c0.9-0.6,1.7-0.8,2.6-0.5c0.8,0.2,1.5,0.6,2.1,1.2
			c0.6,0.6,1,1.3,1.2,2.1c0.2,0.7,0.2,1.5-0.2,2.3c-0.3,0.8-0.6,1.6-0.8,2.3c-0.3,0.7-0.6,1.4-0.8,2.1c-0.3,0.7-0.5,1.4-0.8,2.1
			c-1,2.7-2,5.5-2.9,8.5c-0.9,3-1.9,5.9-2.9,8.7c-0.4,1.1-0.7,2.3-1,3.4c-0.3,1.1-0.6,2.3-1,3.4c-0.3,0.8-0.7,2-1.1,3.4
			c-0.4,1.4-0.8,2.8-1.1,4.2c-0.3,1.4-0.5,2.8-0.6,4.1c-0.1,1.3-0.1,2.3,0.2,3c0.3,1,0.8,1.7,1.4,2c0.7,0.3,1.4,0.3,2.2,0
			c0.8-0.3,1.6-0.6,2.3-1.1c0.7-0.5,1.3-0.9,1.8-1.2c0.9-0.6,1.9-1.3,2.9-2c1-0.7,1.9-1.3,2.8-2c0.9-0.6,1.6-1.2,2.2-1.6
			c0.6-0.5,1-0.8,1.2-1c0.4-0.3,0.8-0.6,1.1-0.9c0.3-0.3,0.7-0.5,1.1-0.9c0.7-0.6,1.5-1.2,2.3-1.7c0.8-0.5,1.5-1.1,2.2-1.6
			c0.7-0.6,1.3-1.1,2-1.6c0.7-0.6,1.4-1.3,2-1.9c0.7-0.6,1.3-1.2,2-1.7c1.1-0.8,2.1-1.8,2.9-2.8c0.9-1,1.8-2,2.9-2.8
			c0.4-0.2,0.8-0.5,1.1-0.8c0.3-0.3,0.7-0.6,1.1-0.9c0.3-0.2,0.6-0.5,0.9-0.9c0.3-0.4,0.6-0.7,0.9-1c0.6-0.7,1.3-1.4,2-2
			c0.3-0.3,0.6-0.6,1-1c0.3-0.4,0.7-0.6,1.1-0.9c0.4-0.3,0.8-0.6,1.2-0.9c0.4-0.3,0.8-0.5,1.1-0.9c0.8-0.7,1.5-1.4,2.2-2.1
			c0.7-0.7,1.4-1.3,2.2-1.8c0.5-0.3,1-0.6,1.4-0.9c0.4-0.3,0.9-0.5,1.4-0.7c0.5-0.2,1-0.4,1.6-0.5c0.6-0.2,1.1-0.4,1.6-0.7
			c0.5-0.2,1-0.4,1.6-0.6c0.5-0.2,1.1-0.4,1.6-0.6c0.8-0.2,1.6-0.4,2.3-0.6c0.7-0.2,1.4-0.4,2-0.5c1.1-0.3,2.5-0.2,4.2,0.3
			c1.2,0.5,2.2,1.2,2.9,2c0.5,0.5,0.9,1.2,1.1,2c0.2,0.8,0.2,1.6-0.2,2.4c-0.1,0.3-0.3,0.7-0.6,1.2c-0.3,0.5-0.7,0.8-1.1,1
			c-0.9,0.5-1.6,0.5-2.1,0.1c-0.5-0.5-0.9-1-1.1-1.6c-0.2-0.5-0.3-1-0.2-1.6c0-0.5,0-1-0.2-1.6c-0.2-0.7-0.8-1.3-1.7-1.6
			c-0.9-0.3-1.6-0.5-2-0.5c-0.8,0-1.7,0.2-2.7,0.5c-0.5,0.2-1,0.4-1.4,0.5c-0.5,0.2-0.9,0.3-1.4,0.5c-2.1,0.7-3.9,1.6-5.4,2.7
			c-1.5,1.1-2.9,2.2-4.2,3.4c-0.8,0.6-1.6,1.2-2.3,1.8c-0.7,0.6-1.4,1.1-2.1,1.6c-0.6,0.6-1.2,1.3-1.8,1.9s-1.2,1.3-1.7,1.9
			c-0.6,0.7-1.2,1.4-1.9,2c-0.7,0.6-1.3,1.1-1.9,1.6c-0.7,0.5-1.3,1.1-1.9,1.7c-0.6,0.6-1.2,1.2-1.9,1.7c-0.6,0.6-1.2,1.2-1.9,1.8
			c-0.7,0.6-1.3,1.1-1.9,1.6c-0.6,0.5-1.2,1.1-1.9,1.6c-0.7,0.6-1.3,1.1-2,1.6c-0.7,0.5-1.4,1-2.1,1.5c-0.7,0.5-1.4,1-2.1,1.5
			c-0.3,0.2-0.6,0.5-0.9,0.8c-0.3,0.3-0.6,0.6-0.9,0.8c-0.4,0.3-0.8,0.6-1.1,0.9C197,140.6,196.7,140.8,196.4,141z"/>
	</g>
	<g>
		<path class="st1" d="M119.6,168.4c0,1.6-0.4,2.8-1.3,3.6c-0.9,0.8-2.1,1.3-3.7,1.3H112v-9.6h2.9c1.5,0,2.7,0.4,3.5,1.2
			C119.2,165.8,119.6,167,119.6,168.4z M117.6,168.5c0-2.1-0.9-3.1-2.6-3.1h-1v6.2h0.8C116.6,171.6,117.6,170.6,117.6,168.5z"/>
		<path class="st1" d="M126.8,173.3h-5.3v-9.6h5.3v1.7h-3.3v2.1h3.1v1.7h-3.1v2.5h3.3V173.3z"/>
		<path class="st1" d="M134.2,170.7c0,0.9-0.3,1.5-0.9,2c-0.6,0.5-1.4,0.7-2.5,0.7c-1,0-1.9-0.2-2.6-0.6V171
			c0.6,0.3,1.1,0.5,1.6,0.6c0.4,0.1,0.8,0.2,1.2,0.2c0.4,0,0.8-0.1,1-0.3c0.2-0.2,0.3-0.4,0.3-0.8c0-0.2-0.1-0.4-0.2-0.5
			c-0.1-0.1-0.2-0.3-0.4-0.4c-0.2-0.1-0.6-0.4-1.2-0.6c-0.6-0.3-1-0.5-1.3-0.8c-0.3-0.3-0.5-0.5-0.7-0.9c-0.2-0.3-0.3-0.7-0.3-1.2
			c0-0.8,0.3-1.5,0.8-2c0.6-0.5,1.3-0.7,2.3-0.7c0.5,0,0.9,0.1,1.4,0.2c0.4,0.1,0.9,0.3,1.4,0.5l-0.6,1.6c-0.5-0.2-0.9-0.4-1.2-0.4
			c-0.3-0.1-0.6-0.1-0.9-0.1c-0.4,0-0.7,0.1-0.9,0.3c-0.2,0.2-0.3,0.4-0.3,0.7c0,0.2,0,0.3,0.1,0.5c0.1,0.1,0.2,0.3,0.4,0.4
			c0.2,0.1,0.6,0.3,1.2,0.7c0.9,0.4,1.4,0.9,1.8,1.3C134,169.5,134.2,170,134.2,170.7z"/>
		<path class="st1" d="M135.8,173.3v-9.6h2v9.6H135.8z"/>
		<path class="st1" d="M143.6,167.9h3.7v5c-0.6,0.2-1.1,0.3-1.7,0.4c-0.5,0.1-1.1,0.1-1.6,0.1c-1.4,0-2.4-0.4-3.2-1.3
			c-0.7-0.8-1.1-2.1-1.1-3.7c0-1.5,0.4-2.7,1.3-3.6c0.9-0.9,2-1.3,3.5-1.3c0.9,0,1.9,0.2,2.7,0.6l-0.6,1.6c-0.7-0.3-1.4-0.5-2.1-0.5
			c-0.8,0-1.5,0.3-2,0.9c-0.5,0.6-0.8,1.4-0.8,2.4c0,1,0.2,1.8,0.6,2.4c0.4,0.5,1,0.8,1.8,0.8c0.4,0,0.8,0,1.2-0.1v-2h-1.7V167.9z"
			/>
		<path class="st1" d="M157.6,173.3h-2.5l-4-7.2h-0.1c0.1,1.3,0.1,2.2,0.1,2.7v4.5h-1.7v-9.6h2.5l4,7.2h0c-0.1-1.2-0.1-2.1-0.1-2.6
			v-4.5h1.8V173.3z"/>
		<path class="st1" d="M171.8,173.3h-2.4l-0.7-0.7c-0.8,0.6-1.7,0.9-2.7,0.9c-1,0-1.8-0.2-2.4-0.7c-0.6-0.5-0.9-1.1-0.9-2
			c0-0.6,0.1-1.1,0.4-1.5c0.3-0.4,0.7-0.8,1.3-1.2c-0.3-0.4-0.5-0.7-0.7-1.1c-0.1-0.3-0.2-0.7-0.2-1.1c0-0.7,0.2-1.2,0.7-1.6
			c0.5-0.4,1.1-0.6,2-0.6c0.8,0,1.4,0.2,1.9,0.6c0.5,0.4,0.7,0.9,0.7,1.5c0,0.5-0.1,1-0.4,1.4c-0.3,0.4-0.8,0.8-1.4,1.2l1.8,1.8
			c0.3-0.5,0.6-1.2,0.8-2h2c-0.2,0.6-0.4,1.2-0.6,1.7c-0.3,0.6-0.6,1.1-0.9,1.5L171.8,173.3z M164.6,170.5c0,0.4,0.1,0.7,0.4,0.9
			c0.3,0.2,0.6,0.3,1,0.3c0.5,0,1-0.1,1.4-0.4l-2.1-2.2c-0.2,0.2-0.4,0.4-0.6,0.6C164.7,170,164.6,170.3,164.6,170.5z M166.9,165.9
			c0-0.2-0.1-0.4-0.2-0.5s-0.3-0.2-0.6-0.2c-0.3,0-0.5,0.1-0.7,0.2c-0.2,0.1-0.2,0.3-0.2,0.6c0,0.4,0.2,0.8,0.6,1.3
			c0.4-0.2,0.6-0.4,0.8-0.6C166.8,166.4,166.9,166.2,166.9,165.9z"/>
		<path class="st1" d="M119.6,184.5c0,1.6-0.4,2.8-1.3,3.6c-0.9,0.8-2.1,1.3-3.7,1.3H112v-9.6h2.9c1.5,0,2.7,0.4,3.5,1.2
			C119.2,181.9,119.6,183,119.6,184.5z M117.6,184.6c0-2.1-0.9-3.1-2.6-3.1h-1v6.2h0.8C116.6,187.7,117.6,186.7,117.6,184.6z"/>
		<path class="st1" d="M126.8,189.4h-5.3v-9.6h5.3v1.7h-3.3v2.1h3.1v1.7h-3.1v2.5h3.3V189.4z"/>
		<path class="st1" d="M134,179.8h2l-3.1,9.6h-2.1l-3.1-9.6h2l1.7,5.7c0.1,0.3,0.2,0.7,0.3,1.2c0.1,0.4,0.2,0.8,0.2,0.9
			c0-0.4,0.2-1.1,0.5-2.1L134,179.8z"/>
		<path class="st1" d="M142.4,189.4h-5.3v-9.6h5.3v1.7h-3.3v2.1h3.1v1.7h-3.1v2.5h3.3V189.4z"/>
		<path class="st1" d="M144.3,189.4v-9.6h2v7.9h3.7v1.7H144.3z"/>
		<path class="st1" d="M160,184.6c0,1.6-0.4,2.8-1.1,3.7c-0.8,0.9-1.8,1.3-3.2,1.3c-1.4,0-2.5-0.4-3.2-1.3c-0.8-0.9-1.1-2.1-1.1-3.7
			c0-1.6,0.4-2.8,1.1-3.6c0.8-0.8,1.8-1.3,3.3-1.3s2.5,0.4,3.2,1.3C159.6,181.8,160,183,160,184.6z M153.2,184.6
			c0,1.1,0.2,1.9,0.6,2.4c0.4,0.5,1,0.8,1.7,0.8c1.6,0,2.3-1.1,2.3-3.2c0-2.2-0.8-3.2-2.3-3.2c-0.8,0-1.4,0.3-1.8,0.8
			S153.2,183.5,153.2,184.6z"/>
		<path class="st1" d="M168.2,182.8c0,1-0.3,1.8-0.9,2.4c-0.6,0.5-1.5,0.8-2.6,0.8h-0.8v3.4h-2v-9.6h2.9c1.1,0,2,0.2,2.5,0.7
			C167.9,181.1,168.2,181.8,168.2,182.8z M163.8,184.3h0.6c0.6,0,1-0.1,1.3-0.4c0.3-0.2,0.4-0.6,0.4-1.1c0-0.5-0.1-0.8-0.4-1.1
			c-0.2-0.2-0.6-0.3-1.2-0.3h-0.9V184.3z"/>
		<path class="st1" d="M173.9,189.4l-2.2-7.5h-0.1c0.1,1.5,0.1,2.5,0.1,3.1v4.4H170v-9.6h2.7l2.2,7.3h0l2.3-7.3h2.7v9.6H178v-4.5
			c0-0.2,0-0.5,0-0.7s0-1,0.1-2.2H178l-2.4,7.5H173.9z"/>
		<path class="st1" d="M187.4,189.4h-5.3v-9.6h5.3v1.7h-3.3v2.1h3.1v1.7h-3.1v2.5h3.3V189.4z"/>
		<path class="st1" d="M197.5,189.4H195l-4-7.2H191c0.1,1.3,0.1,2.2,0.1,2.7v4.5h-1.7v-9.6h2.5l4,7.2h0c-0.1-1.2-0.1-2.1-0.1-2.6
			v-4.5h1.8V189.4z"/>
		<path class="st1" d="M203.4,189.4h-2v-7.9h-2.5v-1.7h6.9v1.7h-2.5V189.4z"/>
	</g>
</g>
</svg>
